<svg width="532" height="141" viewBox="0 0 532 141" fill="none" xmlns="http://www.w3.org/2000/svg">
<path d="M351.86 76.9298C351.617 76.7091 351.422 76.44 351.29 76.1398C351.254 76.0367 351.19 75.9457 351.105 75.8768C351.02 75.808 350.918 75.764 350.81 75.7498C350.34 75.7498 349.61 75.6598 348.73 75.6598C347.478 75.65 346.229 75.7639 345 75.9998L344.86 76.0598C340.52 78.6998 339.32 81.1498 339.71 86.1298C339.75 87.5867 340.17 89.0079 340.928 90.253C341.685 91.4982 342.754 92.5242 344.03 93.2298C344.112 93.2497 344.198 93.2497 344.28 93.2298C344.418 93.2446 344.557 93.2094 344.671 93.1305C344.786 93.0515 344.868 92.9342 344.903 92.7997C344.938 92.6652 344.924 92.5226 344.863 92.3979C344.801 92.2731 344.698 92.1744 344.57 92.1198C343.57 91.5798 343.46 91.1998 343.46 91.1198C343.46 91.0398 343.54 90.9898 343.76 90.8898C346.008 90.1707 348.342 89.7504 350.7 89.6398C350.846 89.6427 350.988 89.5893 351.096 89.4906C351.204 89.392 351.27 89.2556 351.28 89.1098V88.4898C351.287 88.3497 351.244 88.2117 351.16 88.0998L350.23 86.8598L350.33 86.7198C350.433 86.6055 350.521 86.4776 350.59 86.3398C350.64 86.2111 350.64 86.0684 350.59 85.9398L350.5 85.6098L351.32 84.9098C351.378 84.86 351.426 84.7989 351.461 84.7302C351.495 84.6614 351.515 84.5865 351.52 84.5098V84.3698C351.527 84.242 351.492 84.1154 351.42 84.0098L350.58 82.7398C350.21 82.0498 349.75 81.2598 349.47 80.8598C350.208 80.6382 350.85 80.1729 351.29 79.5398H351.42C351.54 79.5124 351.649 79.4472 351.73 79.3536C351.811 79.2601 351.86 79.1431 351.87 79.0198L351.99 77.3198C351.998 77.1778 351.952 77.0381 351.86 76.9298Z" fill="url(#paint0_linear_294_412)"/>
<path d="M492.26 109.1L529.15 68.4996H516.45L498.09 88.6996L503.87 68.4996H503.72H491.18H491.02L472.44 88.9396L478.29 68.4996H478.27H465.59H465.57L446.79 89.1896L466.85 19.0596H454.15L428.29 109.44H428.38L428.29 109.53H440.99L459.76 88.8796L453.91 109.35L453.73 109.53H466.42L466.5 109.44H466.57L466.61 109.35L485.42 88.6396L479.56 109.1L479.16 109.53H491.86L491.95 109.44H492.16L492.26 109.1Z" fill="url(#paint1_linear_294_412)"/>
<path d="M429.9 82.3099C427.512 81.6101 425.026 81.3094 422.54 81.4199C417.82 81.4199 409.69 82.1999 397.68 85.9399C380.21 91.3899 364.14 94.6399 354.68 94.6399C352.869 94.6907 351.06 94.499 349.3 94.0699C347.632 93.6214 346.017 92.998 344.48 92.2099C343.48 91.5499 341.25 90.3799 340.48 86.0099C340.042 84.1025 340.237 82.1041 341.036 80.3176C341.836 78.5312 343.196 77.054 344.91 76.1099C345.15 75.9799 345.24 75.9499 344.91 75.9999C342.892 76.3111 340.981 77.1119 339.344 78.3321C337.708 79.5524 336.394 81.155 335.52 82.9999C332.61 89.2299 332.52 99.4299 337.04 104.15C340.76 108 347.51 110 356.6 110C359.098 109.992 361.595 109.858 364.08 109.6C372.17 108.78 376.84 107.18 383.89 104.75C386.84 103.75 390.19 102.54 394.37 101.29C405.58 97.8299 413.43 95.8399 420.43 95.8399C422.285 95.8213 424.138 95.9888 425.96 96.3399C426.102 96.3614 426.247 96.3321 426.37 96.2571C426.492 96.1821 426.585 96.0662 426.63 95.9299L430.27 82.9999C430.306 82.8595 430.288 82.7108 430.219 82.5831C430.151 82.4554 430.037 82.3579 429.9 82.3099Z" fill="url(#paint2_linear_294_412)"/>
<path d="M530.9 22.4999C520.67 19.8899 517.41 18.9399 510.59 18.7199C496.59 18.3199 490.74 20.2599 483.75 22.8099C482.348 23.2886 481.006 23.926 479.75 24.7099C478.781 25.3571 478.013 26.2615 477.531 27.3215C477.049 28.3814 476.871 29.5548 477.02 30.7099C477.101 31.7807 477.518 32.7987 478.21 33.6199L478.55 34.0299L478.98 33.7399C485.8 29.1199 498.32 28.2799 503.33 28.1199H505.33C511.433 28.0515 517.509 28.9528 523.33 30.7899C524.858 31.3161 526.313 32.0353 527.66 32.9299L528.32 33.3599C528.32 33.3599 530.32 25.6699 531.24 23.1699C531.282 23.0544 531.278 22.927 531.227 22.8148C531.177 22.7026 531.084 22.6147 530.97 22.5699C530.951 22.5424 530.927 22.5187 530.9 22.4999Z" fill="url(#paint3_linear_294_412)"/>
<path d="M516.67 36.4296C513.366 37.4677 509.932 38.0334 506.47 38.1096C505.37 38.1696 504.26 38.1896 503.15 38.1896C497.557 38.2167 491.98 37.572 486.54 36.2696C484.205 35.7707 482.023 34.7178 480.18 33.1996L480.09 33.1196C480.007 33.0601 479.933 32.9894 479.87 32.9096L479.78 32.8196L479.7 32.7396V32.6896C479.201 32.0438 478.88 31.2782 478.77 30.4696C478.52 28.3496 478.34 26.1296 480.36 24.5596L480.26 24.6296L480.03 24.7696C477.66 26.4024 475.773 28.6445 474.57 31.2596C473.75 32.9096 472.3 37.1596 472.02 37.9996C471.94 38.2048 471.907 38.4251 471.923 38.6447C471.938 38.8643 472.002 39.0777 472.11 39.2696C474.63 43.6996 480.65 46.5296 490.51 47.7696C493.049 48.0613 495.604 48.1982 498.16 48.1796C502.93 48.1796 507.43 47.7996 509.67 47.5696C511.91 47.3396 512.54 46.6496 513 45.9296C514.73 43.1739 516.209 40.269 517.42 37.2496L517.93 36.1396L516.67 36.4296Z" fill="url(#paint4_linear_294_412)"/>
<path d="M422.19 113.25C411.96 110.64 408.71 109.7 401.88 109.5C387.88 109.08 382.03 111.03 375.04 113.58C373.635 114.05 372.292 114.688 371.04 115.48C370.09 116.125 369.337 117.021 368.864 118.067C368.391 119.114 368.217 120.271 368.36 121.41C368.437 122.485 368.854 123.508 369.55 124.33L369.88 124.74L370.32 124.44C377.14 119.82 389.65 118.98 394.68 118.82H396.68C402.782 118.741 408.858 119.632 414.68 121.46C416.198 122.019 417.642 122.761 418.98 123.67L419.63 124.1C419.63 124.1 421.63 116.35 422.54 113.92C422.567 113.865 422.583 113.805 422.586 113.744C422.59 113.683 422.581 113.621 422.561 113.564C422.54 113.506 422.508 113.453 422.467 113.408C422.426 113.362 422.376 113.326 422.32 113.3C422.279 113.277 422.236 113.26 422.19 113.25Z" fill="url(#paint5_linear_294_412)"/>
<path d="M407.94 127.19C404.639 128.229 401.209 128.801 397.75 128.89C396.64 128.89 395.53 128.95 394.43 128.95C388.835 128.967 383.259 128.313 377.82 127C375.478 126.497 373.29 125.441 371.44 123.92L371.36 123.84L371.13 123.63L371.05 123.54L370.98 123.47C370.472 122.828 370.147 122.061 370.04 121.25C369.79 119.13 369.62 116.91 371.62 115.34L371.53 115.41L371.32 115.56C368.946 117.191 367.056 119.434 365.85 122.05C365.03 123.7 363.58 127.95 363.3 128.79C363.218 128.996 363.183 129.219 363.199 129.44C363.215 129.662 363.28 129.877 363.39 130.07C365.91 134.49 371.93 137.32 381.79 138.56C384.329 138.852 386.884 138.989 389.44 138.97C394.22 138.97 398.7 138.59 400.95 138.36C403.2 138.13 403.82 137.44 404.27 136.72C406.006 133.963 407.489 131.055 408.7 128.03L409.21 126.92L407.94 127.19Z" fill="url(#paint6_linear_294_412)"/>
<path d="M492.26 109.1L529.15 68.4996H516.45L498.09 88.6996L503.87 68.4996H503.72H491.18H491.02L472.44 88.9396L478.29 68.4996H478.27H465.59H465.57L446.79 89.1896L466.85 19.0596H454.15L428.29 109.44H428.38L428.29 109.53H440.99L459.76 88.8796L453.91 109.35L453.73 109.53H466.42L466.5 109.44H466.57L466.61 109.35L485.42 88.6396L479.56 109.1L479.16 109.53H491.86L491.95 109.44H492.16L492.26 109.1Z" fill="url(#paint7_linear_294_412)"/>
<path d="M292.04 109.44H279.35L305.21 19.0596H317.9L292.04 109.44Z" fill="url(#paint8_linear_294_412)"/>
<path d="M96.4797 30.1799C96.8497 29.1799 98.1797 26.5999 100.34 28.4099C101.771 29.6666 103.31 30.7943 104.94 31.7799C105.725 32.2634 106.637 32.5009 107.558 32.4617C108.48 32.4225 109.368 32.1084 110.11 31.5599C111.19 30.7307 112.216 29.8322 113.18 28.8699C113.18 28.8699 113.97 27.5399 116.18 28.8099C118.39 30.0799 120.6 31.4499 121.39 31.9599C122.18 32.4699 124.1 33.7999 123.05 35.9599C122 38.1199 119.4 41.9599 119.4 41.9599C119.4 41.9599 118.63 44.2399 116.08 42.4999C114.739 41.558 113.32 40.7317 111.84 40.0299C111.357 39.8761 110.844 39.8468 110.348 39.9447C109.851 40.0426 109.387 40.2646 109 40.5899C107.411 41.7143 105.739 42.7171 104 43.5899C102.89 44.0999 100.91 43.8899 98.9997 42.5899C97.0897 41.2899 96.2397 40.6699 95.3197 39.9499C94.7197 39.4799 93.3997 38.8499 93.9097 37.2499C94.4497 35.4499 95.8197 31.9999 96.4797 30.1799Z" fill="url(#paint9_linear_294_412)"/>
<path d="M282.83 59.7296C279.51 57.9396 269.72 52.8096 269.72 52.8096C267.5 51.9096 266.92 52.8096 266.12 54.4596C265.32 56.1096 262.34 63.8896 261.44 65.8796C260.24 68.4696 260.27 68.8796 258.25 68.9696C256.208 68.9217 254.181 69.3211 252.31 70.1396C249.11 71.4496 243.25 75.8696 239.54 87.0496C235.83 98.2296 238.04 109.87 242.86 118.88C247.34 127.29 258.16 137.14 261.35 139.47C261.666 139.709 262 139.923 262.35 140.11C262.22 139.24 262.05 137.9 262.01 137.71C261.97 137.52 262.69 137.32 262.89 137.19V137L263.02 136.48L264.51 136.19V135.63L264.43 134.53V132.13C264.43 132.05 264.53 131.7 264.7 131.73C265.475 131.95 266.304 131.89 267.04 131.56C267.2 131.46 267.65 131.63 268.04 131.76C268.21 131.16 268.35 130.65 268.46 130.21C268.269 129.732 268.241 129.205 268.38 128.71C268.437 128.628 268.508 128.557 268.59 128.5C268.39 127.73 267.67 127.01 266.04 125.6C263.48 123.39 255.78 117.43 252.18 112.47C248.635 107.328 245.994 101.62 244.37 95.5896C243.37 91.1596 243 86.5896 245.11 84.6896C247.22 82.7896 252.58 82.1796 256.75 82.1196C260.92 82.0596 274.01 84.2296 277.18 84.7296C279.59 85.0896 280.86 84.7996 281.4 83.3196C283.45 77.6496 283.92 76.3896 286.12 69.3196C288.32 62.2496 286.42 61.7396 282.83 59.7296Z" fill="url(#paint10_linear_294_412)"/>
<path d="M191.37 66.6196H166.37C165.118 66.5962 163.866 66.6832 162.63 66.8796C155.9 68.1196 151.56 76.2096 150.58 78.8796C148.27 85.5996 146.15 93.1296 145.05 97.6296C144.94 97.9162 144.888 98.222 144.897 98.5289C144.907 98.8359 144.978 99.1378 145.105 99.4172C145.233 99.6965 145.415 99.9476 145.64 100.156C145.866 100.364 146.131 100.525 146.42 100.63C146.718 100.737 147.034 100.784 147.35 100.77H176.92C178.75 100.77 178.42 101.69 177.76 103.41C176.398 106.118 174.109 108.247 171.31 109.41C169.23 110.25 160.87 110.05 157.31 110.04C144.87 110.04 108.6 110.04 104.86 109.98L105.46 110.77C105.58 110.93 105.05 111.43 104.95 111.64V111.81L105.09 112.33L103.98 113.33L104.28 113.79L104.9 114.72C105.5 115.83 106 116.72 106.08 116.8C106.16 116.88 106.2 117.22 106.08 117.29C105.96 117.36 104.58 117.7 104.08 118.59C103.93 118.88 102.39 118.9 102.38 119.22C102.38 119.72 104.19 120.69 104.29 121.73C104.284 121.915 104.213 122.091 104.09 122.23H143.95C143.95 122.23 161.67 122.37 170.52 122.23C177.97 122.11 179.65 115.44 182.12 107.07C183.22 103.25 184.33 99.5996 186.12 93.3296C186.36 92.4796 186.81 90.9096 186.88 90.5696C187.04 89.8496 185.18 89.8096 184.43 89.8096H152.76C151.38 89.8096 151.58 89.4596 151.84 88.9496C153.71 85.2896 155.65 80.7296 158.84 79.2996C160.96 78.2996 165 78.5796 167.77 78.5796H187.61C190.05 78.5796 190.13 78.3396 190.37 77.5796C191.18 74.9096 192.44 70.3896 193.37 67.5796C193.61 66.4896 192 66.6196 191.37 66.6196Z" fill="url(#paint11_linear_294_412)"/>
<path d="M136.68 52.3398H124L119.9 66.6298H79.47C78.2384 66.6081 77.0073 66.6918 75.79 66.8798C69.06 68.1198 64.72 76.2098 63.74 78.8798C61.43 85.5998 59.31 93.1298 58.2 97.6298C58.0915 97.9173 58.0413 98.2234 58.0521 98.5304C58.0629 98.8374 58.1346 99.1392 58.2629 99.4183C58.3913 99.6974 58.5738 99.9482 58.7999 100.156C59.026 100.364 59.2912 100.525 59.58 100.63C59.8778 100.737 60.1938 100.784 60.51 100.77H90C91.83 100.77 91.5 101.69 90.84 103.41C89.4812 106.12 87.1914 108.25 84.39 109.41C82.31 110.25 73.95 110.05 70.39 110.04C58.08 110.04 22.44 110.04 18.07 109.98L18.29 110.28C18.41 110.44 17.89 110.95 17.79 111.16V111.32L17.93 111.84L16.83 112.84L17.13 113.3L17.75 114.23C18.34 115.34 18.85 116.23 18.92 116.3C18.99 116.37 19.05 116.74 18.92 116.8C18.79 116.86 17.41 117.21 16.92 118.1C16.76 118.4 15.21 118.41 15.21 118.72C15.21 119.23 17.03 120.2 17.13 121.24C17.0319 121.647 16.786 122.004 16.44 122.24H57C57 122.24 74.72 122.38 83.58 122.24C91.03 122.12 92.7 115.45 95.17 107.08C96.28 103.26 97.38 99.6098 99.17 93.3398C99.41 92.4898 99.86 90.9198 99.94 90.5798C100.09 89.8598 98.23 89.8198 97.48 89.8198H65.81C64.27 89.8198 64.63 89.4698 64.88 88.9598C66.75 85.2998 68.69 80.7398 71.88 79.3098C74.01 78.3098 78.05 78.5898 80.82 78.5898H116.5V78.6598H129.2L130.44 74.3398C131.11 72.0198 131.88 69.4398 132.44 67.6198C132.5 67.4585 132.5 67.2812 132.44 67.1198L136.68 52.3398Z" fill="url(#paint12_linear_294_412)"/>
<path d="M202 24.7096C201.831 24.4481 201.696 24.1658 201.6 23.8696C201.574 23.7796 201.524 23.6984 201.455 23.6349C201.387 23.5714 201.302 23.5281 201.21 23.5096C199.297 23.1225 197.437 22.5081 195.67 21.6796C195.5 21.5796 195.44 21.4896 195.43 21.4496C195.42 21.4096 195.43 21.3596 195.55 21.2596C195.596 21.2089 195.63 21.1495 195.653 21.085C195.675 21.0205 195.684 20.9521 195.679 20.8841C195.675 20.816 195.656 20.7496 195.626 20.6887C195.595 20.6278 195.552 20.5737 195.5 20.5296C195.416 20.4555 195.311 20.4097 195.2 20.3989C195.088 20.3882 194.976 20.4129 194.88 20.4696C193.306 21.6197 192.161 23.2637 191.63 25.1396C190.2 29.7496 191.72 33.7196 195.55 35.2496C197.175 35.725 198.857 35.9773 200.55 35.9996H200.86C200.984 35.9904 201.101 35.9369 201.189 35.8488C201.277 35.7607 201.331 35.6439 201.34 35.5196V34.9996C201.36 34.9209 201.36 34.8384 201.34 34.7596C201.16 34.3096 200.94 33.8296 200.85 33.5996L200.96 33.3596L201.08 33.0296C201.09 32.96 201.09 32.8893 201.08 32.8196L201.01 32.3796L201.49 31.6496C201.539 31.5708 201.57 31.482 201.58 31.3896C201.59 31.3234 201.59 31.2559 201.58 31.1896L201.12 29.9496L200.52 28.0696C200.978 27.788 201.33 27.3625 201.52 26.8596H201.59C201.717 26.8286 201.828 26.7506 201.901 26.6412C201.973 26.5317 202.001 26.399 201.98 26.2696L202.05 24.9996C202.064 24.9001 202.047 24.7987 202 24.7096Z" fill="url(#paint13_linear_294_412)"/>
<path d="M263.74 19.7299C262.48 16.5699 260.96 14.8499 255.37 13.0899C255.241 13.0517 255.103 13.0647 254.984 13.1262C254.864 13.1877 254.773 13.293 254.73 13.4199C254.708 13.4836 254.7 13.5509 254.705 13.6179C254.71 13.685 254.728 13.7503 254.759 13.8101C254.79 13.8698 254.832 13.9227 254.884 13.9657C254.936 14.0086 254.996 14.0406 255.06 14.0599C255.936 14.3241 256.788 14.6585 257.61 15.0599C257.684 15.0908 257.747 15.1438 257.79 15.2119C257.833 15.2799 257.854 15.3596 257.85 15.4399C257.74 15.8999 256.47 16.7799 252.31 17.1499H251.38C245.25 17.1499 232.26 12.8499 223.7 9.99992C220.13 8.81992 217.3 7.88992 215.85 7.53992C211.793 6.52567 207.632 5.98209 203.45 5.91992C198.19 5.91992 194.13 7.01992 191.37 9.23992C186.82 12.9999 185.73 21.9999 187.61 27.7999C188.203 29.6134 189.249 31.2456 190.649 32.5422C192.049 33.8388 193.756 34.7569 195.61 35.2099L196.14 35.3499C192.23 33.7599 191.71 28.6199 192.68 25.3499C193.142 23.7098 194.138 22.2705 195.51 21.2599C195.542 21.249 195.57 21.228 195.59 21.1999C195.93 20.8399 197.11 20.1999 201.02 19.5399C201.577 19.4635 202.138 19.4267 202.7 19.4299C207.54 19.4299 216.23 21.6399 227.15 25.6999C229.76 26.6999 235.15 28.4499 237.45 29.1099C241.352 30.284 245.396 30.9199 249.47 30.9999C254.73 30.9999 259.03 29.7699 261.92 27.4499L262.01 27.3699C262.044 27.3472 262.071 27.3162 262.09 27.2799C262.23 27.0799 265.11 23.2499 263.74 19.7299Z" fill="url(#paint14_linear_294_412)"/>
<path d="M216.33 30.7798L193.82 109.44H206.52L229.03 30.7798H216.33Z" fill="url(#paint15_linear_294_412)"/>
<path d="M224.87 89.69C224.68 89.59 224.49 89.46 224.32 89.38C223.978 89.1868 223.581 89.1144 223.193 89.1743C222.804 89.2341 222.448 89.4228 222.18 89.71C219.31 93.39 216.57 97.18 213.93 100.78L214.02 100.84L214.41 100.69C214.606 100.644 214.8 100.587 214.99 100.52C215.39 100.59 215.78 100.711 216.15 100.88L218.02 101.64C218.15 101.64 218.27 102.15 218.35 102.3L218.46 102.38L218.79 102.64C218.82 102.953 218.874 103.264 218.95 103.57L219.31 103.73L220.03 104.08L221.57 104.88C221.62 104.88 221.84 105.08 221.83 105.17C221.68 105.617 221.709 106.104 221.91 106.53C222.01 106.71 221.7 107.08 221.68 107.3C221.66 107.52 221.82 107.44 221.88 107.52C222.31 107.71 223.18 107.76 223.69 108.24C223.863 108.44 223.975 108.687 224.01 108.95C224.375 108.935 224.733 108.838 225.055 108.665C225.377 108.491 225.656 108.247 225.87 107.95C233.29 100.3 236 95.66 224.87 89.69Z" fill="url(#paint16_linear_294_412)"/>
<path d="M11.44 89.6899C11.25 89.5899 11.07 89.4599 10.91 89.3799C10.5654 89.1835 10.1646 89.1092 9.77259 89.1691C9.38053 89.229 9.02019 89.4196 8.75 89.7099C5.89 93.3899 3.16 97.1799 0.5 100.79L0.59 100.85L0.990002 100.7C1.18457 100.66 1.37528 100.603 1.56 100.53C1.95766 100.598 2.34441 100.719 2.71 100.89L4.57 101.65C4.7 101.65 4.82 102.16 4.89 102.32L5.01 102.39L5.34 102.65L5.52 103.58L5.87 103.74L6.59 104.09L8.15 104.85C8.15 104.85 8.43 105.05 8.4 105.14C8.25064 105.587 8.2793 106.074 8.48 106.5C8.58 106.68 8.27 107.04 8.25 107.26L8.46 107.49C9.10849 107.617 9.72851 107.861 10.29 108.21C10.4529 108.412 10.5598 108.653 10.6 108.91C10.9675 108.898 11.3272 108.801 11.6514 108.628C11.9757 108.454 12.2557 108.209 12.47 107.91C19.86 100.3 22.52 95.6599 11.44 89.6899Z" fill="url(#paint17_linear_294_412)"/>
<path d="M265.68 8.92979C263.21 1.16979 254.43 0.779785 252.68 0.779785H252.31C252.184 0.784721 252.065 0.836877 251.976 0.925847C251.887 1.01482 251.835 1.13406 251.83 1.25979L251.16 12.5998C251.154 12.7313 251.198 12.8602 251.283 12.9604C251.369 13.0606 251.489 13.1247 251.62 13.1398C252.672 13.3194 253.708 13.5802 254.72 13.9198L255.02 14.0098C260.55 15.9498 261.73 17.1098 262.77 20.0998C264.09 24.0098 260.83 28.1798 260.83 28.1798C261.249 27.9307 261.641 27.6392 262 27.3098C266.39 23.5298 267.49 14.6498 265.68 8.92979Z" fill="url(#paint18_linear_294_412)"/>
<path d="M292.04 109.44H279.35L305.21 19.0596H317.9L292.04 109.44Z" fill="url(#paint19_linear_294_412)"/>
<path d="M96.4797 30.1799C96.8497 29.1799 98.1797 26.5999 100.34 28.4099C101.771 29.6666 103.31 30.7943 104.94 31.7799C105.725 32.2634 106.637 32.5009 107.558 32.4617C108.48 32.4225 109.368 32.1084 110.11 31.5599C111.19 30.7307 112.216 29.8322 113.18 28.8699C113.18 28.8699 113.97 27.5399 116.18 28.8099C118.39 30.0799 120.6 31.4499 121.39 31.9599C122.18 32.4699 124.1 33.7999 123.05 35.9599C122 38.1199 119.4 41.9599 119.4 41.9599C119.4 41.9599 118.63 44.2399 116.08 42.4999C114.739 41.558 113.32 40.7317 111.84 40.0299C111.357 39.8761 110.844 39.8468 110.348 39.9447C109.851 40.0426 109.387 40.2646 109 40.5899C107.411 41.7143 105.739 42.7171 104 43.5899C102.89 44.0999 100.91 43.8899 98.9997 42.5899C97.0897 41.2899 96.2397 40.6699 95.3197 39.9499C94.7197 39.4799 93.3997 38.8499 93.9097 37.2499C94.4497 35.4499 95.8197 31.9999 96.4797 30.1799Z" fill="url(#paint20_linear_294_412)"/>
<path d="M282.83 59.7296C279.51 57.9396 269.72 52.8096 269.72 52.8096C267.5 51.9096 266.92 52.8096 266.12 54.4596C265.32 56.1096 262.34 63.8896 261.44 65.8796C260.24 68.4696 260.27 68.8796 258.25 68.9696C256.208 68.9217 254.181 69.3211 252.31 70.1396C249.11 71.4496 243.25 75.8696 239.54 87.0496C235.83 98.2296 238.04 109.87 242.86 118.88C247.34 127.29 258.16 137.14 261.35 139.47C261.666 139.709 262 139.923 262.35 140.11C262.22 139.24 262.05 137.9 262.01 137.71C261.97 137.52 262.69 137.32 262.89 137.19V137L263.02 136.48L264.51 136.19V135.63L264.43 134.53V132.13C264.43 132.05 264.53 131.7 264.7 131.73C265.475 131.95 266.304 131.89 267.04 131.56C267.2 131.46 267.65 131.63 268.04 131.76C268.21 131.16 268.35 130.65 268.46 130.21C268.269 129.732 268.241 129.205 268.38 128.71C268.437 128.628 268.508 128.557 268.59 128.5C268.39 127.73 267.67 127.01 266.04 125.6C263.48 123.39 255.78 117.43 252.18 112.47C248.635 107.328 245.994 101.62 244.37 95.5896C243.37 91.1596 243 86.5896 245.11 84.6896C247.22 82.7896 252.58 82.1796 256.75 82.1196C260.92 82.0596 274.01 84.2296 277.18 84.7296C279.59 85.0896 280.86 84.7996 281.4 83.3196C283.45 77.6496 283.92 76.3896 286.12 69.3196C288.32 62.2496 286.42 61.7396 282.83 59.7296Z" fill="url(#paint21_linear_294_412)"/>
<path d="M191.37 66.6196H166.37C165.118 66.5962 163.866 66.6832 162.63 66.8796C155.9 68.1196 151.56 76.2096 150.58 78.8796C148.27 85.5996 146.15 93.1296 145.05 97.6296C144.94 97.9162 144.888 98.222 144.897 98.5289C144.907 98.8359 144.978 99.1378 145.105 99.4172C145.233 99.6965 145.415 99.9476 145.64 100.156C145.866 100.364 146.131 100.525 146.42 100.63C146.718 100.737 147.034 100.784 147.35 100.77H176.92C178.75 100.77 178.42 101.69 177.76 103.41C176.398 106.118 174.109 108.247 171.31 109.41C169.23 110.25 160.87 110.05 157.31 110.04C144.87 110.04 108.6 110.04 104.86 109.98L105.46 110.77C105.58 110.93 105.05 111.43 104.95 111.64V111.81L105.09 112.33L103.98 113.33L104.28 113.79L104.9 114.72C105.5 115.83 106 116.72 106.08 116.8C106.16 116.88 106.2 117.22 106.08 117.29C105.96 117.36 104.58 117.7 104.08 118.59C103.93 118.88 102.39 118.9 102.38 119.22C102.38 119.72 104.19 120.69 104.29 121.73C104.284 121.915 104.213 122.091 104.09 122.23H143.95C143.95 122.23 161.67 122.37 170.52 122.23C177.97 122.11 179.65 115.44 182.12 107.07C183.22 103.25 184.33 99.5996 186.12 93.3296C186.36 92.4796 186.81 90.9096 186.88 90.5696C187.04 89.8496 185.18 89.8096 184.43 89.8096H152.76C151.38 89.8096 151.58 89.4596 151.84 88.9496C153.71 85.2896 155.65 80.7296 158.84 79.2996C160.96 78.2996 165 78.5796 167.77 78.5796H187.61C190.05 78.5796 190.13 78.3396 190.37 77.5796C191.18 74.9096 192.44 70.3896 193.37 67.5796C193.61 66.4896 192 66.6196 191.37 66.6196Z" fill="url(#paint22_linear_294_412)"/>
<path d="M136.68 52.3398H124L119.9 66.6298H79.47C78.2384 66.6081 77.0073 66.6918 75.79 66.8798C69.06 68.1198 64.72 76.2098 63.74 78.8798C61.43 85.5998 59.31 93.1298 58.2 97.6298C58.0915 97.9173 58.0413 98.2234 58.0521 98.5304C58.0629 98.8374 58.1346 99.1392 58.2629 99.4183C58.3913 99.6974 58.5738 99.9482 58.7999 100.156C59.026 100.364 59.2912 100.525 59.58 100.63C59.8778 100.737 60.1938 100.784 60.51 100.77H90C91.83 100.77 91.5 101.69 90.84 103.41C89.4812 106.12 87.1914 108.25 84.39 109.41C82.31 110.25 73.95 110.05 70.39 110.04C58.08 110.04 22.44 110.04 18.07 109.98L18.29 110.28C18.41 110.44 17.89 110.95 17.79 111.16V111.32L17.93 111.84L16.83 112.84L17.13 113.3L17.75 114.23C18.34 115.34 18.85 116.23 18.92 116.3C18.99 116.37 19.05 116.74 18.92 116.8C18.79 116.86 17.41 117.21 16.92 118.1C16.76 118.4 15.21 118.41 15.21 118.72C15.21 119.23 17.03 120.2 17.13 121.24C17.0319 121.647 16.786 122.004 16.44 122.24H57C57 122.24 74.72 122.38 83.58 122.24C91.03 122.12 92.7 115.45 95.17 107.08C96.28 103.26 97.38 99.6098 99.17 93.3398C99.41 92.4898 99.86 90.9198 99.94 90.5798C100.09 89.8598 98.23 89.8198 97.48 89.8198H65.81C64.27 89.8198 64.63 89.4698 64.88 88.9598C66.75 85.2998 68.69 80.7398 71.88 79.3098C74.01 78.3098 78.05 78.5898 80.82 78.5898H116.5V78.6598H129.2L130.44 74.3398C131.11 72.0198 131.88 69.4398 132.44 67.6198C132.5 67.4585 132.5 67.2812 132.44 67.1198L136.68 52.3398Z" fill="url(#paint23_linear_294_412)"/>
<path d="M216.33 30.7798L193.82 109.44H206.52L229.03 30.7798H216.33Z" fill="url(#paint24_linear_294_412)"/>
<path d="M224.87 89.69C224.68 89.59 224.49 89.46 224.32 89.38C223.978 89.1868 223.581 89.1144 223.193 89.1743C222.804 89.2341 222.448 89.4228 222.18 89.71C219.31 93.39 216.57 97.18 213.93 100.78L214.02 100.84L214.41 100.69C214.606 100.644 214.8 100.587 214.99 100.52C215.39 100.59 215.78 100.711 216.15 100.88L218.02 101.64C218.15 101.64 218.27 102.15 218.35 102.3L218.46 102.38L218.79 102.64C218.82 102.953 218.874 103.264 218.95 103.57L219.31 103.73L220.03 104.08L221.57 104.88C221.62 104.88 221.84 105.08 221.83 105.17C221.68 105.617 221.709 106.104 221.91 106.53C222.01 106.71 221.7 107.08 221.68 107.3C221.66 107.52 221.82 107.44 221.88 107.52C222.31 107.71 223.18 107.76 223.69 108.24C223.863 108.44 223.975 108.687 224.01 108.95C224.375 108.935 224.733 108.838 225.055 108.665C225.377 108.491 225.656 108.247 225.87 107.95C233.29 100.3 236 95.66 224.87 89.69Z" fill="url(#paint25_linear_294_412)"/>
<path d="M11.44 89.6899C11.25 89.5899 11.07 89.4599 10.91 89.3799C10.5654 89.1835 10.1646 89.1092 9.77259 89.1691C9.38053 89.229 9.02019 89.4196 8.75 89.7099C5.89 93.3899 3.16 97.1799 0.5 100.79L0.59 100.85L0.990002 100.7C1.18457 100.66 1.37528 100.603 1.56 100.53C1.95766 100.598 2.34441 100.719 2.71 100.89L4.57 101.65C4.7 101.65 4.82 102.16 4.89 102.32L5.01 102.39L5.34 102.65L5.52 103.58L5.87 103.74L6.59 104.09L8.15 104.85C8.15 104.85 8.43 105.05 8.4 105.14C8.25064 105.587 8.2793 106.074 8.48 106.5C8.58 106.68 8.27 107.04 8.25 107.26L8.46 107.49C9.10849 107.617 9.72851 107.861 10.29 108.21C10.4529 108.412 10.5598 108.653 10.6 108.91C10.9675 108.898 11.3272 108.801 11.6514 108.628C11.9757 108.454 12.2557 108.209 12.47 107.91C19.86 100.3 22.52 95.6599 11.44 89.6899Z" fill="url(#paint26_linear_294_412)"/>
<defs>
<linearGradient id="paint0_linear_294_412" x1="340.3" y1="90.0598" x2="352.79" y2="77.5598" gradientUnits="userSpaceOnUse">
<stop stop-color="#FF0000"/>
<stop offset="0.22" stop-color="#FF4D00"/>
<stop offset="0.47" stop-color="#FF7400"/>
<stop offset="0.72" stop-color="#FF9A00"/>
<stop offset="1" stop-color="#FFC100"/>
</linearGradient>
<linearGradient id="paint1_linear_294_412" x1="428.08" y1="109.32" x2="499.02" y2="38.3696" gradientUnits="userSpaceOnUse">
<stop stop-color="#FFC100"/>
<stop offset="0.28" stop-color="#FF9A00"/>
<stop offset="0.53" stop-color="#FF7400"/>
<stop offset="0.78" stop-color="#FF4D00"/>
<stop offset="1" stop-color="#FF0000"/>
</linearGradient>
<linearGradient id="paint2_linear_294_412" x1="351.53" y1="118.57" x2="408.88" y2="61.2099" gradientUnits="userSpaceOnUse">
<stop stop-color="#FFC100"/>
<stop offset="0.28" stop-color="#FF9A00"/>
<stop offset="0.53" stop-color="#FF7400"/>
<stop offset="0.78" stop-color="#FF4D00"/>
<stop offset="1" stop-color="#FF0000"/>
</linearGradient>
<linearGradient id="paint3_linear_294_412" x1="488.81" y1="44.1999" x2="520.78" y2="12.2299" gradientUnits="userSpaceOnUse">
<stop stop-color="#FF0000"/>
<stop offset="0.22" stop-color="#FF4D00"/>
<stop offset="0.47" stop-color="#FF7400"/>
<stop offset="0.72" stop-color="#FF9A00"/>
<stop offset="1" stop-color="#FFC100"/>
</linearGradient>
<linearGradient id="paint4_linear_294_412" x1="482.02" y1="49.7196" x2="506.77" y2="24.9696" gradientUnits="userSpaceOnUse">
<stop stop-color="#FFC100"/>
<stop offset="0.28" stop-color="#FF9A00"/>
<stop offset="0.53" stop-color="#FF7400"/>
<stop offset="0.78" stop-color="#FF4D00"/>
<stop offset="1" stop-color="#FF0000"/>
</linearGradient>
<linearGradient id="paint5_linear_294_412" x1="380.11" y1="134.98" x2="412.06" y2="103.03" gradientUnits="userSpaceOnUse">
<stop stop-color="#FF0000"/>
<stop offset="0.22" stop-color="#FF4D00"/>
<stop offset="0.47" stop-color="#FF7400"/>
<stop offset="0.72" stop-color="#FF9A00"/>
<stop offset="1" stop-color="#FFC100"/>
</linearGradient>
<linearGradient id="paint6_linear_294_412" x1="373.3" y1="140.55" x2="398.06" y2="115.8" gradientUnits="userSpaceOnUse">
<stop stop-color="#FFC100"/>
<stop offset="0.28" stop-color="#FF9A00"/>
<stop offset="0.53" stop-color="#FF7400"/>
<stop offset="0.78" stop-color="#FF4D00"/>
<stop offset="1" stop-color="#FF0000"/>
</linearGradient>
<linearGradient id="paint7_linear_294_412" x1="432.91" y1="55.8296" x2="510.57" y2="100.67" gradientUnits="userSpaceOnUse">
<stop stop-color="#FFC100"/>
<stop offset="0.28" stop-color="#FF9A00"/>
<stop offset="0.53" stop-color="#FF7400"/>
<stop offset="0.78" stop-color="#FF4D00"/>
<stop offset="1" stop-color="#FF0000"/>
</linearGradient>
<linearGradient id="paint8_linear_294_412" x1="279.33" y1="44.9396" x2="317.93" y2="83.5396" gradientUnits="userSpaceOnUse">
<stop stop-color="#010280"/>
<stop offset="0.22" stop-color="#061993"/>
<stop offset="0.47" stop-color="#0C3BAA"/>
<stop offset="0.72" stop-color="#135CC5"/>
<stop offset="1" stop-color="#1973D1"/>
</linearGradient>
<linearGradient id="paint9_linear_294_412" x1="99.1597" y1="26.7999" x2="117.01" y2="44.6499" gradientUnits="userSpaceOnUse">
<stop stop-color="#010280"/>
<stop offset="0.22" stop-color="#061993"/>
<stop offset="0.47" stop-color="#0C3BAA"/>
<stop offset="0.72" stop-color="#135CC5"/>
<stop offset="1" stop-color="#1973D1"/>
</linearGradient>
<linearGradient id="paint10_linear_294_412" x1="246.34" y1="73.6496" x2="287.58" y2="114.89" gradientUnits="userSpaceOnUse">
<stop stop-color="#010280"/>
<stop offset="0.22" stop-color="#061993"/>
<stop offset="0.47" stop-color="#0C3BAA"/>
<stop offset="0.72" stop-color="#135CC5"/>
<stop offset="1" stop-color="#1973D1"/>
</linearGradient>
<linearGradient id="paint11_linear_294_412" x1="134.43" y1="80.3196" x2="175.15" y2="121.05" gradientUnits="userSpaceOnUse">
<stop stop-color="#010280"/>
<stop offset="0.22" stop-color="#061993"/>
<stop offset="0.47" stop-color="#0C3BAA"/>
<stop offset="0.72" stop-color="#135CC5"/>
<stop offset="1" stop-color="#1973D1"/>
</linearGradient>
<linearGradient id="paint12_linear_294_412" x1="58.65" y1="69.3298" x2="99.34" y2="110.03" gradientUnits="userSpaceOnUse">
<stop stop-color="#010280"/>
<stop offset="0.22" stop-color="#061993"/>
<stop offset="0.47" stop-color="#0C3BAA"/>
<stop offset="0.72" stop-color="#135CC5"/>
<stop offset="1" stop-color="#1973D1"/>
</linearGradient>
<linearGradient id="paint13_linear_294_412" x1="191.91" y1="23.2696" x2="202.84" y2="34.1996" gradientUnits="userSpaceOnUse">
<stop stop-color="#010280"/>
<stop offset="0.22" stop-color="#061993"/>
<stop offset="0.47" stop-color="#0C3BAA"/>
<stop offset="0.72" stop-color="#135CC5"/>
<stop offset="1" stop-color="#1973D1"/>
</linearGradient>
<linearGradient id="paint14_linear_294_412" x1="201.14" y1="-0.570078" x2="245.54" y2="43.8199" gradientUnits="userSpaceOnUse">
<stop stop-color="#1973D1"/>
<stop offset="0.28" stop-color="#135CC5"/>
<stop offset="0.53" stop-color="#0C3BAA"/>
<stop offset="0.78" stop-color="#061993"/>
<stop offset="1" stop-color="#010280"/>
</linearGradient>
<linearGradient id="paint15_linear_294_412" x1="194.21" y1="52.8898" x2="228.64" y2="87.3198" gradientUnits="userSpaceOnUse">
<stop stop-color="#010280"/>
<stop offset="0.22" stop-color="#061993"/>
<stop offset="0.47" stop-color="#0C3BAA"/>
<stop offset="0.72" stop-color="#135CC5"/>
<stop offset="1" stop-color="#1973D1"/>
</linearGradient>
<linearGradient id="paint16_linear_294_412" x1="218.43" y1="93.45" x2="229.45" y2="104.48" gradientUnits="userSpaceOnUse">
<stop stop-color="#010280"/>
<stop offset="0.22" stop-color="#061993"/>
<stop offset="0.47" stop-color="#0C3BAA"/>
<stop offset="0.72" stop-color="#135CC5"/>
<stop offset="1" stop-color="#1973D1"/>
</linearGradient>
<linearGradient id="paint17_linear_294_412" x1="5" y1="93.4499" x2="16.02" y2="104.49" gradientUnits="userSpaceOnUse">
<stop stop-color="#010280"/>
<stop offset="0.22" stop-color="#061993"/>
<stop offset="0.47" stop-color="#0C3BAA"/>
<stop offset="0.72" stop-color="#135CC5"/>
<stop offset="1" stop-color="#1973D1"/>
</linearGradient>
<linearGradient id="paint18_linear_294_412" x1="249.24" y1="3.66979" x2="267.48" y2="21.9098" gradientUnits="userSpaceOnUse">
<stop stop-color="#1973D1"/>
<stop offset="0.28" stop-color="#135CC5"/>
<stop offset="0.53" stop-color="#0C3BAA"/>
<stop offset="0.78" stop-color="#061993"/>
<stop offset="1" stop-color="#010280"/>
</linearGradient>
<linearGradient id="paint19_linear_294_412" x1="279.33" y1="44.9396" x2="317.93" y2="83.5396" gradientUnits="userSpaceOnUse">
<stop stop-color="#010280"/>
<stop offset="0.22" stop-color="#061993"/>
<stop offset="0.47" stop-color="#0C3BAA"/>
<stop offset="0.72" stop-color="#135CC5"/>
<stop offset="1" stop-color="#1973D1"/>
</linearGradient>
<linearGradient id="paint20_linear_294_412" x1="99.1597" y1="26.7999" x2="117.01" y2="44.6499" gradientUnits="userSpaceOnUse">
<stop stop-color="#010280"/>
<stop offset="0.22" stop-color="#061993"/>
<stop offset="0.47" stop-color="#0C3BAA"/>
<stop offset="0.72" stop-color="#135CC5"/>
<stop offset="1" stop-color="#1973D1"/>
</linearGradient>
<linearGradient id="paint21_linear_294_412" x1="246.34" y1="73.6496" x2="287.58" y2="114.89" gradientUnits="userSpaceOnUse">
<stop stop-color="#010280"/>
<stop offset="0.22" stop-color="#061993"/>
<stop offset="0.47" stop-color="#0C3BAA"/>
<stop offset="0.72" stop-color="#135CC5"/>
<stop offset="1" stop-color="#1973D1"/>
</linearGradient>
<linearGradient id="paint22_linear_294_412" x1="134.43" y1="80.3196" x2="175.15" y2="121.05" gradientUnits="userSpaceOnUse">
<stop stop-color="#010280"/>
<stop offset="0.22" stop-color="#061993"/>
<stop offset="0.47" stop-color="#0C3BAA"/>
<stop offset="0.72" stop-color="#135CC5"/>
<stop offset="1" stop-color="#1973D1"/>
</linearGradient>
<linearGradient id="paint23_linear_294_412" x1="58.65" y1="69.3298" x2="99.34" y2="110.03" gradientUnits="userSpaceOnUse">
<stop stop-color="#010280"/>
<stop offset="0.22" stop-color="#061993"/>
<stop offset="0.47" stop-color="#0C3BAA"/>
<stop offset="0.72" stop-color="#135CC5"/>
<stop offset="1" stop-color="#1973D1"/>
</linearGradient>
<linearGradient id="paint24_linear_294_412" x1="194.21" y1="52.8898" x2="228.64" y2="87.3198" gradientUnits="userSpaceOnUse">
<stop stop-color="#010280"/>
<stop offset="0.22" stop-color="#061993"/>
<stop offset="0.47" stop-color="#0C3BAA"/>
<stop offset="0.72" stop-color="#135CC5"/>
<stop offset="1" stop-color="#1973D1"/>
</linearGradient>
<linearGradient id="paint25_linear_294_412" x1="218.43" y1="93.45" x2="229.45" y2="104.48" gradientUnits="userSpaceOnUse">
<stop stop-color="#010280"/>
<stop offset="0.22" stop-color="#061993"/>
<stop offset="0.47" stop-color="#0C3BAA"/>
<stop offset="0.72" stop-color="#135CC5"/>
<stop offset="1" stop-color="#1973D1"/>
</linearGradient>
<linearGradient id="paint26_linear_294_412" x1="5" y1="93.4499" x2="16.02" y2="104.49" gradientUnits="userSpaceOnUse">
<stop stop-color="#010280"/>
<stop offset="0.22" stop-color="#061993"/>
<stop offset="0.47" stop-color="#0C3BAA"/>
<stop offset="0.72" stop-color="#135CC5"/>
<stop offset="1" stop-color="#1973D1"/>
</linearGradient>
</defs>
</svg>
