<svg width="750" height="500" viewBox="0 0 750 500" fill="none" xmlns="http://www.w3.org/2000/svg">
<path d="M628.25 151.93C628.252 153.847 627.685 155.721 626.622 157.316C625.558 158.911 624.046 160.155 622.275 160.89C620.505 161.624 618.556 161.818 616.676 161.445C614.795 161.072 613.068 160.15 611.712 158.795C610.356 157.441 609.432 155.714 609.057 153.834C608.682 151.954 608.874 150.005 609.607 148.234C610.34 146.463 611.582 144.949 613.176 143.884C614.769 142.819 616.643 142.25 618.56 142.25C621.128 142.25 623.591 143.27 625.408 145.085C627.225 146.9 628.247 149.362 628.25 151.93Z" fill="#EBEBEB"/>
<path d="M600.12 151.93C600.122 153.972 599.518 155.968 598.386 157.666C597.253 159.365 595.642 160.689 593.756 161.472C591.871 162.254 589.795 162.46 587.793 162.063C585.79 161.666 583.951 160.684 582.506 159.241C581.062 157.798 580.078 155.959 579.679 153.957C579.28 151.955 579.484 149.879 580.265 147.993C581.045 146.107 582.368 144.494 584.065 143.36C585.763 142.226 587.758 141.62 589.8 141.62C592.535 141.62 595.159 142.706 597.094 144.639C599.029 146.572 600.117 149.195 600.12 151.93Z" fill="#EBEBEB"/>
<path d="M567.69 144.63C573.737 144.63 578.64 139.727 578.64 133.68C578.64 127.632 573.737 122.73 567.69 122.73C561.642 122.73 556.74 127.632 556.74 133.68C556.74 139.727 561.642 144.63 567.69 144.63Z" fill="#EBEBEB"/>
<path d="M571.289 113.704C575.757 109.237 575.757 101.993 571.289 97.5257C566.822 93.0581 559.578 93.0581 555.111 97.5257C550.643 101.993 550.643 109.237 555.111 113.704C559.578 118.172 566.822 118.172 571.289 113.704Z" fill="#EBEBEB"/>
<path d="M577.21 92.86C583.738 92.86 589.03 87.568 589.03 81.04C589.03 74.512 583.738 69.22 577.21 69.22C570.682 69.22 565.39 74.512 565.39 81.04C565.39 87.568 570.682 92.86 577.21 92.86Z" fill="#EBEBEB"/>
<path d="M604.14 84.2099C611.253 84.2099 617.02 78.4434 617.02 71.33C617.02 64.2165 611.253 58.45 604.14 58.45C597.026 58.45 591.26 64.2165 591.26 71.33C591.26 78.4434 597.026 84.2099 604.14 84.2099Z" fill="#EBEBEB"/>
<path d="M649.198 135.113C650.103 130.023 646.71 125.164 641.621 124.259C636.531 123.354 631.672 126.747 630.767 131.836C629.862 136.926 633.255 141.785 638.344 142.69C643.434 143.595 648.293 140.202 649.198 135.113Z" fill="#EBEBEB"/>
<path d="M653.62 105.3C653.618 107.016 653.107 108.694 652.152 110.12C651.197 111.546 649.841 112.657 648.255 113.312C646.668 113.968 644.923 114.138 643.24 113.802C641.557 113.466 640.011 112.638 638.799 111.424C637.586 110.21 636.76 108.663 636.426 106.98C636.092 105.296 636.264 103.551 636.921 101.966C637.579 100.381 638.691 99.0255 640.118 98.0721C641.546 97.1188 643.223 96.61 644.94 96.61C646.08 96.61 647.21 96.8348 648.264 97.2717C649.317 97.7085 650.275 98.3488 651.081 99.1558C651.887 99.9629 652.526 100.921 652.962 101.975C653.398 103.029 653.621 104.159 653.62 105.3Z" fill="#EBEBEB"/>
<path d="M638.278 81.9711C638.978 77.6477 636.04 73.5759 631.717 72.8764C627.393 72.177 623.321 75.1148 622.622 79.4382C621.922 83.7616 624.86 87.8334 629.184 88.5328C633.507 89.2323 637.579 86.2945 638.278 81.9711Z" fill="#EBEBEB"/>
<path d="M151.61 243.71C152.594 243.489 153.608 243.435 154.61 243.55C157.429 243.808 160.07 245.038 162.08 247.03C163.479 248.397 164.535 250.076 165.16 251.93C165.878 254.066 166.009 256.356 165.54 258.56C165.027 261.011 163.795 263.253 162 265C160.072 266.877 157.592 268.085 154.925 268.445C152.259 268.805 149.547 268.298 147.19 267C144.995 265.804 143.209 263.979 142.06 261.76C141.018 259.762 140.535 257.52 140.66 255.27C140.772 253.317 141.344 251.419 142.33 249.73C143.741 247.277 145.956 245.387 148.6 244.38C149.557 243.999 150.571 243.779 151.6 243.73C150.624 243.979 149.662 244.283 148.72 244.64C146.203 245.708 144.114 247.583 142.78 249.97C141.801 251.722 141.276 253.692 141.255 255.7C141.234 257.707 141.717 259.688 142.66 261.46C143.184 262.481 143.858 263.418 144.66 264.24C145.493 265.107 146.458 265.836 147.52 266.4C149.753 267.613 152.313 268.082 154.831 267.74C157.348 267.399 159.691 266.264 161.52 264.5C162.394 263.673 163.13 262.71 163.7 261.65C164.266 260.648 164.677 259.565 164.92 258.44C165.375 256.346 165.268 254.169 164.61 252.13C164.038 250.35 163.055 248.729 161.74 247.4C159.821 245.448 157.304 244.194 154.59 243.84C153.6 243.746 152.605 243.703 151.61 243.71Z" fill="#E0E0E0"/>
<path d="M156.27 227.94C156.196 227.814 156.135 227.679 156.09 227.54C155.97 227.24 155.82 226.84 155.61 226.32C155.17 225.2 154.547 223.59 153.74 221.49L153.86 221.56L142.51 223.17L142.66 223.01C142.49 225.1 142.29 227.42 142.09 229.91V230.03L141.98 230.08C139.691 231.04 137.541 232.305 135.59 233.84L135.48 233.92L135.35 233.86L129 231L129.31 230.92L122.39 240.06V239.71L126.85 245.01L126.97 245.15L126.9 245.31C125.96 247.6 125.328 250.004 125.02 252.46V252.64L124.85 252.71L118.36 255.14L118.57 254.81C119.05 258.37 119.57 262.22 120.12 266.16L119.82 265.88L126.72 266.48H126.92L127 266.67C127.957 268.949 129.211 271.091 130.73 273.04L130.85 273.2L130.77 273.39L127.9 279.7L127.79 279.28L136.91 286.22H136.48L141.79 281.76L141.95 281.63L142.15 281.71C144.428 282.653 146.823 283.285 149.27 283.59C149.4 283.69 148.98 283.37 149.56 283.82V283.87V283.98L149.64 284.18L149.79 284.59L150.09 285.41L150.7 287.03C151.11 288.11 151.51 289.19 151.91 290.27L151.53 290.04L163 288.58L162.7 288.9C162.91 286.57 163.11 284.28 163.31 282V281.79L163.5 281.71C165.782 280.762 167.927 279.514 169.88 278L170.05 277.87L170.23 277.96L176.54 280.83L176.13 280.94C178.5 277.82 180.82 274.79 183.13 271.82V272.23L178.68 266.91L178.56 266.77L178.63 266.59C179.581 264.306 180.22 261.904 180.53 259.45V259.26L180.7 259.2L187.19 256.79L187 257.1C186.47 253.1 186 249.33 185.48 245.74L185.73 245.97L178.83 245.35H178.68L178.62 245.21C177.67 242.92 176.423 240.764 174.91 238.8L174.82 238.69L174.88 238.56C175.88 236.28 176.88 234.22 177.77 232.27L177.84 232.52C174.31 229.82 171.31 227.52 168.75 225.52H168.94L163.61 229.93H163.55H163.49C161.762 229.201 159.967 228.645 158.13 228.27L156.76 228.01L156.31 227.92C156.463 227.907 156.617 227.907 156.77 227.92C157.07 227.92 157.54 228.01 158.15 228.12C160.01 228.451 161.83 228.978 163.58 229.69H163.46L168.74 225.2L168.84 225.12L168.94 225.2L178.09 232.1L178.22 232.2L178.15 232.35L175.3 238.67V238.43C176.854 240.419 178.138 242.605 179.12 244.93L178.91 244.77L185.81 245.36H186.02V245.58C186.51 249.17 187.02 252.94 187.58 256.93V257.16L187.36 257.25L180.88 259.68L181.08 259.43C180.768 261.941 180.123 264.4 179.16 266.74L179.11 266.42L183.57 271.72L183.73 271.92L183.57 272.13L176.64 281.25L176.48 281.47L176.24 281.36L169.93 278.49H170.28C168.28 280.041 166.084 281.322 163.75 282.3L163.96 282.01C163.76 284.29 163.56 286.59 163.36 288.91V289.19H163.09L151.73 290.74H151.45L151.35 290.47C150.95 289.4 150.55 288.32 150.14 287.24L149.53 285.61L149.23 284.8L149.08 284.39L149 284.18V284.08V284.03L149.28 284.25C146.768 283.934 144.31 283.285 141.97 282.32L142.33 282.26L137.02 286.71L136.8 286.89L136.58 286.72L127.46 279.78L127.24 279.61L127.36 279.36C128.36 277.18 129.36 275.03 130.24 273.06V273.41C128.684 271.409 127.403 269.21 126.43 266.87L126.71 267.08L119.82 266.46H119.55V266.2L118.02 254.84V254.59L118.25 254.5L124.74 252.09L124.55 252.34C124.87 249.831 125.523 247.377 126.49 245.04V245.34L122 240.08L121.85 239.91L121.99 239.73L128.99 230.63L129.11 230.47L129.29 230.55L135.59 233.44H135.35C137.345 231.898 139.538 230.63 141.87 229.67L141.74 229.84C141.97 227.36 142.19 225.04 142.38 222.95V222.8H142.52L153.89 221.33H153.98V221.41C154.73 223.51 155.32 225.12 155.72 226.24L156.16 227.5C156.205 227.645 156.241 227.791 156.27 227.94Z" fill="#E0E0E0"/>
<path fill-rule="evenodd" clip-rule="evenodd" d="M114.72 305.3C118.228 305.745 121.661 306.653 124.93 308L132.44 301.71L145.33 311.52L141.27 320.44C143.444 323.228 145.233 326.295 146.59 329.56L156.35 330.42L158.52 346.48L149.35 349.91C148.914 353.419 148.006 356.854 146.65 360.12L152.95 367.63L143.13 380.53L134.22 376.46C131.43 378.636 128.359 380.426 125.09 381.78L124.23 391.54L108.17 393.72L104.75 384.55C101.239 384.104 97.803 383.196 94.5299 381.85L86.9999 388.14L74.1099 378.32L78.1699 369.41C76.0006 366.615 74.2117 363.545 72.8499 360.28L63.0999 359.42L60.9199 343.37L70.0899 339.94C70.5269 336.428 71.4351 332.99 72.7899 329.72L66.4999 322.22L76.3099 309.32L85.2199 313.38C88.0163 311.213 91.0861 309.425 94.3499 308.06L95.2099 298.31L111.27 296.13L114.7 305.3H114.72ZM108.12 327.6C104.715 328.064 101.523 329.527 98.9496 331.805C96.3758 334.082 94.535 337.072 93.6599 340.395C92.7847 343.719 92.9145 347.227 94.0329 350.477C95.1513 353.726 97.208 356.571 99.9431 358.652C102.678 360.733 105.969 361.957 109.399 362.168C112.829 362.379 116.245 361.569 119.215 359.839C122.184 358.109 124.575 355.538 126.083 352.45C127.592 349.362 128.151 345.896 127.69 342.49C127.069 337.921 124.658 333.785 120.988 330.993C117.318 328.2 112.69 326.98 108.12 327.6Z" fill="#E0E0E0"/>
<path fill-rule="evenodd" clip-rule="evenodd" d="M478 96.4499C480.405 96.7555 482.758 97.3776 485 98.2999L490.1 93.9999L498.93 100.72L496.15 106.82C497.636 108.732 498.86 110.834 499.79 113.07L506.47 113.66L507.96 124.66L501.68 127C501.384 129.406 500.762 131.761 499.83 134L504.14 139.14L497.42 148L491.32 145.22C489.408 146.706 487.306 147.93 485.07 148.86L484.48 155.54L473.48 157.03L471.13 150.75C468.725 150.453 466.37 149.834 464.13 148.91L458.99 153.21L450.16 146.49L452.94 140.39C451.452 138.479 450.227 136.377 449.3 134.14L442.62 133.55L441.13 122.55L447.41 120.2C447.706 117.793 448.328 115.438 449.26 113.2L445 108L451.72 99.1699L457.82 101.95C459.712 100.48 461.79 99.2657 464 98.3399L464.59 91.6599L475.59 90.1699L478 96.4499ZM473.48 111.72C471.148 112.038 468.963 113.04 467.201 114.6C465.439 116.16 464.179 118.207 463.58 120.483C462.981 122.758 463.07 125.161 463.837 127.386C464.603 129.611 466.012 131.559 467.885 132.983C469.758 134.408 472.012 135.245 474.36 135.388C476.709 135.532 479.048 134.977 481.081 133.791C483.114 132.606 484.75 130.845 485.782 128.73C486.815 126.615 487.196 124.242 486.88 121.91C486.67 120.358 486.155 118.863 485.366 117.51C484.577 116.157 483.528 114.973 482.28 114.027C481.033 113.08 479.61 112.389 478.095 111.993C476.58 111.597 475.001 111.504 473.45 111.72H473.48Z" fill="#EBEBEB"/>
<path fill-rule="evenodd" clip-rule="evenodd" d="M210.62 319C213.405 319.357 216.131 320.076 218.73 321.14L224.73 316.14L234.92 324L231.7 331C233.42 333.22 234.839 335.658 235.92 338.25L243.67 338.93L245.39 351.68L238.11 354.4C237.762 357.187 237.043 359.915 235.97 362.51L240.97 368.51L233.18 378.74L226.1 375.52C223.885 377.242 221.45 378.661 218.86 379.74L218.18 387.48L205.43 389.21L202.71 381.93C199.923 381.583 197.195 380.863 194.6 379.79L188.6 384.79L178.4 377L181.63 369.93C179.908 367.715 178.489 365.28 177.41 362.69L169.67 362L167.94 349.26L175.22 346.54C175.566 343.753 176.286 341.025 177.36 338.43L172.36 332.43L180.15 322.19L187.23 325.42C189.445 323.695 191.88 322.273 194.47 321.19L195.15 313.45L207.9 311.72L210.62 319ZM205.39 336.7C202.685 337.067 200.15 338.228 198.105 340.035C196.06 341.843 194.597 344.216 193.901 346.855C193.205 349.495 193.308 352.281 194.195 354.862C195.083 357.443 196.715 359.703 198.887 361.356C201.059 363.009 203.672 363.981 206.397 364.149C209.121 364.316 211.834 363.673 214.192 362.299C216.55 360.925 218.448 358.882 219.646 356.43C220.843 353.977 221.287 351.225 220.92 348.52C220.423 344.897 218.509 341.619 215.597 339.406C212.685 337.194 209.014 336.228 205.39 336.72V336.7Z" fill="#F5F5F5"/>
<path d="M533.82 125.49H163.44C157.63 125.49 152.92 130.2 152.92 136.01V312.87C152.92 318.68 157.63 323.39 163.44 323.39H533.82C539.63 323.39 544.34 318.68 544.34 312.87V136.01C544.34 130.2 539.63 125.49 533.82 125.49Z" fill="#FAFAFA"/>
<path d="M533.82 323.39L534.57 323.34C535.312 323.285 536.047 323.151 536.76 322.94C537.926 322.584 539.022 322.029 540 321.3C541.37 320.289 542.469 318.957 543.2 317.42C543.655 316.504 543.962 315.522 544.11 314.51C544.246 313.385 544.29 312.252 544.24 311.12C544.24 308.74 544.24 306.12 544.24 303.3C544.24 297.65 544.24 291.13 544.24 283.79C544.24 254.42 544.24 211.93 544.15 159.43C544.15 152.87 544.15 146.153 544.15 139.28C544.216 137.565 544.156 135.847 543.97 134.14C543.659 132.447 542.931 130.859 541.85 129.52C540.195 127.473 537.819 126.138 535.21 125.79C534.33 125.696 533.445 125.663 532.56 125.69H487.89H389.32H163.48C161.016 125.697 158.634 126.579 156.76 128.18C154.895 129.778 153.673 131.999 153.32 134.43C153.191 135.652 153.148 136.882 153.19 138.11V236.37C153.19 255.257 153.19 273.797 153.19 291.99V312.27C153.095 314.464 153.689 316.632 154.89 318.47C156.091 320.299 157.842 321.7 159.89 322.47C161.89 323.31 164.14 323.08 166.33 323.12H179.43L363.89 323.18L488.24 323.26H522.05H530.84C532.84 323.26 533.84 323.26 533.84 323.26H530.84H522.05L488.24 323.31L363.89 323.4L179.43 323.45H166.33C165.23 323.45 164.15 323.45 163.03 323.45C161.897 323.421 160.778 323.198 159.72 322.79C157.577 321.998 155.742 320.545 154.48 318.64C153.228 316.721 152.603 314.46 152.69 312.17V236.27C152.69 217.377 152.69 198.167 152.69 178.64V138.17C152.649 136.915 152.693 135.659 152.82 134.41C153.193 131.857 154.479 129.527 156.44 127.85C158.406 126.163 160.91 125.234 163.5 125.23H389.34H487.91H532.58C533.482 125.202 534.384 125.239 535.28 125.34C536.179 125.459 537.059 125.691 537.9 126.03C539.566 126.723 541.036 127.815 542.18 129.21C543.299 130.604 544.055 132.253 544.38 134.01C544.524 134.876 544.584 135.753 544.56 136.63V139.22C544.56 146.093 544.56 152.81 544.56 159.37C544.56 211.87 544.5 254.37 544.48 283.73C544.48 291.07 544.48 297.59 544.48 303.24C544.48 306.067 544.48 308.673 544.48 311.06C544.528 312.199 544.478 313.34 544.33 314.47C544.185 315.49 543.874 316.48 543.41 317.4C542.667 318.949 541.55 320.289 540.16 321.3C539.163 322.031 538.046 322.582 536.86 322.93C536.138 323.132 535.398 323.259 534.65 323.31L533.82 323.39Z" fill="#263238"/>
<path d="M505.11 160.67C506.529 158.886 508.084 157.214 509.76 155.67C511.31 153.995 512.981 152.438 514.76 151.01C513.339 152.792 511.785 154.464 510.11 156.01C508.563 157.687 506.892 159.245 505.11 160.67Z" fill="#263238"/>
<path d="M514.83 160.72C513.025 159.282 511.331 157.711 509.76 156.02C508.062 154.454 506.49 152.755 505.06 150.94C506.863 152.383 508.558 153.958 510.13 155.65C511.821 157.22 513.392 158.915 514.83 160.72Z" fill="#263238"/>
<path d="M522.12 155.59C522.017 154.582 521.857 153.58 521.64 152.59C520.934 149.964 519.371 147.648 517.2 146.01C515.602 144.809 513.73 144.027 511.753 143.734C509.776 143.44 507.758 143.645 505.88 144.33C503.67 145.147 501.748 146.593 500.35 148.49C498.844 150.53 498.031 152.999 498.031 155.535C498.031 158.071 498.844 160.54 500.35 162.58C501.734 164.49 503.661 165.94 505.88 166.74C507.757 167.426 509.775 167.633 511.752 167.341C513.729 167.049 515.602 166.269 517.2 165.07C519.372 163.428 520.934 161.109 521.64 158.48C521.854 157.509 522.014 156.528 522.12 155.54C522.15 156.114 522.13 156.689 522.06 157.26C522.014 157.688 521.937 158.113 521.83 158.53C521.189 161.246 519.631 163.658 517.42 165.36C515.784 166.63 513.852 167.464 511.806 167.784C509.76 168.104 507.666 167.9 505.72 167.19C504.588 166.801 503.524 166.234 502.57 165.51C501.557 164.781 500.669 163.893 499.94 162.88C498.363 160.756 497.511 158.181 497.511 155.535C497.511 152.889 498.363 150.314 499.94 148.19C501.397 146.212 503.409 144.711 505.72 143.88C507.806 143.132 510.053 142.956 512.23 143.37C514.121 143.733 515.899 144.539 517.42 145.72C519.633 147.417 521.191 149.826 521.83 152.54C521.938 152.96 522.014 153.388 522.06 153.82C522.109 154.131 522.133 154.445 522.13 154.76C522.147 155.036 522.143 155.314 522.12 155.59Z" fill="#263238"/>
<path d="M195 289.65C194.36 289.65 193.746 289.396 193.293 288.945C192.839 288.493 192.583 287.88 192.58 287.24V282C192.559 281.67 192.606 281.339 192.717 281.027C192.829 280.716 193.004 280.431 193.23 280.189C193.456 279.948 193.73 279.755 194.033 279.624C194.337 279.492 194.664 279.425 194.995 279.425C195.326 279.425 195.653 279.492 195.957 279.624C196.261 279.755 196.534 279.948 196.761 280.189C196.987 280.431 197.161 280.716 197.273 281.027C197.385 281.339 197.431 281.67 197.41 282V287.26C197.405 287.896 197.149 288.504 196.697 288.951C196.246 289.399 195.636 289.65 195 289.65ZM195 280.56C194.624 280.563 194.265 280.713 193.999 280.979C193.733 281.245 193.583 281.604 193.58 281.98V287.24C193.61 287.595 193.772 287.925 194.034 288.166C194.296 288.407 194.639 288.541 194.995 288.541C195.351 288.541 195.694 288.407 195.956 288.166C196.218 287.925 196.38 287.595 196.41 287.24V282C196.413 281.813 196.378 281.627 196.309 281.453C196.239 281.279 196.136 281.12 196.005 280.987C195.874 280.853 195.718 280.746 195.545 280.673C195.373 280.6 195.188 280.561 195 280.56Z" fill="#263238"/>
<path d="M195 292.15C193.541 292.15 192.141 291.571 191.108 290.54C190.075 289.508 189.493 288.11 189.49 286.65C189.49 286.517 189.543 286.39 189.637 286.296C189.73 286.203 189.858 286.15 189.99 286.15C190.123 286.15 190.25 286.203 190.344 286.296C190.438 286.39 190.49 286.517 190.49 286.65C190.566 287.792 191.074 288.862 191.909 289.643C192.745 290.425 193.846 290.86 194.99 290.86C196.134 290.86 197.236 290.425 198.071 289.643C198.907 288.862 199.414 287.792 199.49 286.65C199.49 286.517 199.543 286.39 199.637 286.296C199.73 286.203 199.858 286.15 199.99 286.15C200.123 286.15 200.25 286.203 200.344 286.296C200.438 286.39 200.49 286.517 200.49 286.65C200.488 288.106 199.909 289.502 198.88 290.533C197.851 291.563 196.456 292.145 195 292.15Z" fill="#263238"/>
<path d="M195 295.2C194.867 295.2 194.74 295.147 194.646 295.053C194.553 294.96 194.5 294.833 194.5 294.7V291.7C194.5 291.567 194.553 291.44 194.646 291.346C194.74 291.253 194.867 291.2 195 291.2C195.133 291.2 195.26 291.253 195.354 291.346C195.447 291.44 195.5 291.567 195.5 291.7V294.7C195.5 294.833 195.447 294.96 195.354 295.053C195.26 295.147 195.133 295.2 195 295.2Z" fill="#263238"/>
<path d="M249.28 295H235C234.867 295 234.74 294.947 234.646 294.854C234.553 294.76 234.5 294.633 234.5 294.5V280.23C234.5 280.097 234.553 279.97 234.646 279.876C234.74 279.783 234.867 279.73 235 279.73H249.3C249.433 279.73 249.56 279.783 249.654 279.876C249.747 279.97 249.8 280.097 249.8 280.23V294.54C249.79 294.669 249.73 294.789 249.633 294.875C249.536 294.961 249.409 295.006 249.28 295ZM235.48 294H248.78V280.73H235.48V294Z" fill="#263238"/>
<path d="M247.35 292.07C247.276 292.072 247.202 292.057 247.134 292.026C247.066 291.995 247.007 291.948 246.96 291.89L244.12 288.36L242.12 290.8C242.078 290.853 242.025 290.897 241.965 290.928C241.904 290.959 241.838 290.977 241.77 290.98C241.701 290.989 241.631 290.982 241.565 290.96C241.499 290.937 241.439 290.9 241.39 290.85L239.72 289.3C238.72 290.42 237.72 291.58 237.56 291.8C237.508 291.897 237.424 291.975 237.323 292.02C237.222 292.064 237.109 292.075 237.001 292.048C236.894 292.022 236.798 291.961 236.729 291.874C236.66 291.788 236.622 291.681 236.62 291.57C236.62 291.33 236.62 291.29 239.31 288.25C239.353 288.2 239.407 288.159 239.468 288.132C239.528 288.104 239.594 288.09 239.66 288.09C239.726 288.084 239.792 288.092 239.855 288.115C239.917 288.137 239.973 288.173 240.02 288.22L241.68 289.75L243.68 287.25C243.728 287.193 243.788 287.147 243.855 287.116C243.922 287.085 243.996 287.069 244.07 287.069C244.144 287.069 244.218 287.085 244.285 287.116C244.353 287.147 244.412 287.193 244.46 287.25L247.68 291.25C247.722 291.3 247.754 291.358 247.774 291.421C247.793 291.484 247.8 291.549 247.793 291.615C247.787 291.68 247.767 291.743 247.736 291.801C247.704 291.859 247.662 291.909 247.61 291.95C247.539 292.017 247.448 292.059 247.35 292.07Z" fill="#263238"/>
<path d="M241.35 287.39C241.042 287.39 240.74 287.299 240.483 287.127C240.227 286.956 240.027 286.712 239.909 286.427C239.791 286.142 239.76 285.828 239.82 285.526C239.88 285.223 240.029 284.945 240.247 284.727C240.465 284.509 240.743 284.36 241.046 284.3C241.348 284.24 241.662 284.271 241.947 284.389C242.232 284.507 242.476 284.707 242.647 284.963C242.819 285.22 242.91 285.521 242.91 285.83C242.91 286.244 242.746 286.641 242.453 286.933C242.161 287.226 241.764 287.39 241.35 287.39ZM241.35 285.27C241.239 285.27 241.131 285.303 241.039 285.364C240.947 285.426 240.875 285.513 240.833 285.616C240.79 285.718 240.779 285.831 240.801 285.939C240.822 286.048 240.876 286.148 240.954 286.226C241.032 286.304 241.132 286.358 241.241 286.379C241.349 286.401 241.462 286.39 241.564 286.347C241.667 286.305 241.754 286.233 241.816 286.141C241.877 286.049 241.91 285.941 241.91 285.83C241.91 285.681 241.851 285.539 241.746 285.434C241.641 285.329 241.499 285.27 241.35 285.27Z" fill="#263238"/>
<path d="M297.06 294.29H282.91C282.778 294.29 282.65 294.237 282.557 294.144C282.463 294.05 282.41 293.923 282.41 293.79V283.26C282.41 283.127 282.463 283 282.557 282.906C282.65 282.813 282.778 282.76 282.91 282.76H286L287.43 281.33C287.524 281.239 287.65 281.189 287.78 281.19H292.09C292.221 281.189 292.346 281.239 292.44 281.33L293.87 282.76H297.08C297.213 282.76 297.34 282.813 297.434 282.906C297.527 283 297.58 283.127 297.58 283.26V293.79C297.58 293.857 297.567 293.924 297.54 293.986C297.514 294.048 297.475 294.104 297.427 294.151C297.378 294.197 297.321 294.234 297.258 294.258C297.195 294.282 297.127 294.293 297.06 294.29ZM283.41 293.29H296.56V283.76H293.64C293.575 283.761 293.51 283.748 293.449 283.722C293.389 283.696 293.335 283.658 293.29 283.61L291.86 282.19H288L286.57 283.61C286.526 283.658 286.471 283.696 286.411 283.722C286.351 283.748 286.286 283.761 286.22 283.76H283.44L283.41 293.29Z" fill="#263238"/>
<path d="M290 292.24C289.278 292.242 288.57 292.029 287.969 291.629C287.367 291.229 286.898 290.659 286.62 289.991C286.343 289.324 286.269 288.589 286.41 287.88C286.55 287.171 286.898 286.52 287.409 286.009C287.92 285.498 288.572 285.15 289.281 285.01C289.99 284.869 290.724 284.942 291.392 285.22C292.059 285.497 292.629 285.967 293.029 286.568C293.43 287.17 293.642 287.877 293.64 288.6C293.635 289.564 293.25 290.486 292.568 291.168C291.887 291.849 290.964 292.235 290 292.24ZM290 285.95C289.476 285.948 288.962 286.102 288.525 286.392C288.088 286.682 287.747 287.095 287.545 287.579C287.343 288.063 287.289 288.596 287.39 289.111C287.491 289.625 287.743 290.099 288.113 290.47C288.483 290.842 288.955 291.095 289.47 291.198C289.984 291.301 290.517 291.249 291.002 291.049C291.487 290.849 291.901 290.509 292.193 290.073C292.485 289.637 292.64 289.124 292.64 288.6C292.627 287.908 292.344 287.248 291.85 286.762C291.357 286.276 290.693 286.002 290 286V285.95Z" fill="#263238"/>
<path d="M333.63 287.36C333.63 287.756 333.513 288.142 333.293 288.471C333.073 288.8 332.761 289.056 332.395 289.208C332.03 289.359 331.628 289.399 331.24 289.322C330.852 289.244 330.495 289.054 330.216 288.774C329.936 288.494 329.745 288.138 329.668 287.75C329.591 287.362 329.631 286.96 329.782 286.595C329.933 286.229 330.19 285.917 330.519 285.697C330.848 285.477 331.234 285.36 331.63 285.36C332.16 285.36 332.669 285.571 333.044 285.946C333.419 286.321 333.63 286.83 333.63 287.36Z" fill="#263238"/>
<path d="M339.44 287.36C339.44 287.756 339.323 288.142 339.103 288.471C338.883 288.8 338.571 289.056 338.205 289.208C337.84 289.359 337.438 289.399 337.05 289.322C336.662 289.244 336.305 289.054 336.026 288.774C335.746 288.494 335.556 288.138 335.478 287.75C335.401 287.362 335.441 286.96 335.592 286.595C335.744 286.229 336 285.917 336.329 285.697C336.658 285.477 337.044 285.36 337.44 285.36C337.97 285.36 338.479 285.571 338.854 285.946C339.229 286.321 339.44 286.83 339.44 287.36Z" fill="#263238"/>
<path d="M345.24 287.36C345.24 287.756 345.123 288.142 344.903 288.471C344.683 288.8 344.371 289.056 344.006 289.208C343.64 289.359 343.238 289.399 342.85 289.322C342.462 289.244 342.106 289.054 341.826 288.774C341.546 288.494 341.356 288.138 341.279 287.75C341.201 287.362 341.241 286.96 341.392 286.595C341.544 286.229 341.8 285.917 342.129 285.697C342.458 285.477 342.845 285.36 343.24 285.36C343.771 285.36 344.279 285.571 344.654 285.946C345.03 286.321 345.24 286.83 345.24 287.36Z" fill="#263238"/>
<path d="M516.25 260.16C516.25 260.3 441.2 260.42 348.64 260.42C256.08 260.42 181 260.3 181 260.16C181 260.02 256 259.9 348.64 259.9C441.28 259.9 516.25 260 516.25 260.16Z" fill="#263238"/>
<path d="M199.53 229.59L196 240.25H194.4L191.5 231.73L188.59 240.25H186.96L183.39 229.59H184.96L187.84 238.25L190.84 229.59H192.24L195.18 238.3L198.12 229.59H199.53Z" fill="#E0E0E0"/>
<path d="M209.05 235.6V240.25H207.59V235.77C207.59 234.19 206.8 233.41 205.41 233.41C205.057 233.384 204.702 233.436 204.371 233.563C204.041 233.691 203.742 233.889 203.497 234.146C203.253 234.402 203.068 234.709 202.956 235.045C202.844 235.381 202.808 235.738 202.85 236.09V240.25H201.39V229H202.85V233.37C203.2 232.961 203.638 232.639 204.133 232.427C204.627 232.216 205.163 232.121 205.7 232.15C207.67 232.1 209.05 233.23 209.05 235.6Z" fill="#E0E0E0"/>
<path d="M218.15 235.37V240.25H216.77V239.18C216.462 239.581 216.057 239.898 215.594 240.1C215.131 240.303 214.624 240.386 214.12 240.34C212.29 240.34 211.12 239.34 211.12 237.96C211.12 236.58 211.96 235.6 214.37 235.6H216.68V235.31C216.68 234.08 215.97 233.36 214.52 233.36C213.593 233.351 212.69 233.658 211.96 234.23L211.35 233.14C212.322 232.446 213.497 232.094 214.69 232.14C216.9 232.1 218.15 233.17 218.15 235.37ZM216.69 237.78V236.65H214.44C212.99 236.65 212.58 237.22 212.58 237.9C212.58 238.58 213.25 239.21 214.36 239.21C214.85 239.247 215.338 239.129 215.757 238.873C216.175 238.616 216.502 238.233 216.69 237.78Z" fill="#E0E0E0"/>
<path d="M225.4 239.77C224.896 240.163 224.269 240.365 223.63 240.34C223.287 240.379 222.94 240.341 222.613 240.228C222.287 240.115 221.99 239.931 221.744 239.688C221.499 239.445 221.311 239.15 221.194 238.825C221.077 238.5 221.035 238.153 221.07 237.81V233.38H219.7V232.18H221.07V230.41H222.53V232.18H224.85V233.38H222.53V237.75C222.506 237.926 222.521 238.105 222.575 238.275C222.629 238.444 222.72 238.599 222.842 238.729C222.964 238.858 223.113 238.959 223.279 239.023C223.445 239.087 223.623 239.114 223.8 239.1C224.213 239.108 224.615 238.973 224.94 238.72L225.4 239.77Z" fill="#E0E0E0"/>
<path d="M231.27 229H233.13L230.57 231H229.2L231.27 229Z" fill="#E0E0E0"/>
<path d="M235.27 239.39L235.88 238.24C236.725 238.781 237.707 239.069 238.71 239.07C240.07 239.07 240.63 238.66 240.63 237.98C240.63 236.17 235.53 237.73 235.53 234.52C235.53 233.07 236.83 232.1 238.9 232.1C239.927 232.08 240.941 232.332 241.84 232.83L241.21 233.99C240.512 233.555 239.702 233.332 238.88 233.35C237.6 233.35 236.98 233.82 236.98 234.46C236.98 236.36 242.1 234.81 242.1 237.95C242.1 239.41 240.76 240.34 238.61 240.34C237.426 240.372 236.26 240.041 235.27 239.39Z" fill="#E0E0E0"/>
<path d="M247.27 236.21C247.256 235.376 247.49 234.558 247.943 233.858C248.396 233.158 249.047 232.609 249.813 232.28C250.58 231.951 251.426 231.858 252.245 232.012C253.065 232.166 253.82 232.561 254.414 233.145C255.008 233.73 255.415 234.478 255.583 235.294C255.751 236.111 255.672 236.959 255.356 237.731C255.041 238.502 254.502 239.162 253.81 239.627C253.118 240.092 252.303 240.34 251.47 240.34C250.917 240.368 250.364 240.281 249.847 240.084C249.329 239.887 248.858 239.585 248.463 239.197C248.068 238.809 247.758 238.343 247.553 237.829C247.348 237.315 247.251 236.763 247.27 236.21ZM254.18 236.21C254.18 235.489 253.893 234.797 253.383 234.287C252.873 233.777 252.181 233.49 251.46 233.49C250.738 233.49 250.047 233.777 249.537 234.287C249.026 234.797 248.74 235.489 248.74 236.21C248.74 236.931 249.026 237.623 249.537 238.133C250.047 238.643 250.738 238.93 251.46 238.93C252.181 238.93 252.873 238.643 253.383 238.133C253.893 237.623 254.18 236.931 254.18 236.21Z" fill="#E0E0E0"/>
<path d="M265.34 235.6V240.25H263.88V235.77C263.88 234.19 263.09 233.41 261.7 233.41C261.347 233.384 260.992 233.436 260.661 233.563C260.331 233.691 260.032 233.889 259.788 234.146C259.543 234.402 259.358 234.709 259.246 235.045C259.134 235.381 259.098 235.738 259.14 236.09V240.25H257.68V232.18H259.08V233.39C259.428 232.956 259.874 232.613 260.383 232.388C260.891 232.164 261.446 232.065 262 232.1C264 232.1 265.34 233.23 265.34 235.6Z" fill="#E0E0E0"/>
<path d="M279.28 232.18L275.37 241.05C274.65 242.76 273.72 243.29 272.49 243.29C271.731 243.314 270.991 243.05 270.42 242.55L271.04 241.45C271.428 241.828 271.948 242.04 272.49 242.04C273.19 242.04 273.63 241.72 274.03 240.8L274.29 240.23L270.72 232.23H272.25L275.06 238.68L277.85 232.23L279.28 232.18Z" fill="#E0E0E0"/>
<path d="M279.67 236.21C279.656 235.377 279.891 234.558 280.343 233.859C280.796 233.159 281.446 232.61 282.212 232.281C282.977 231.952 283.823 231.858 284.642 232.012C285.461 232.165 286.216 232.558 286.811 233.142C287.406 233.725 287.813 234.472 287.982 235.288C288.151 236.104 288.074 236.952 287.76 237.724C287.445 238.495 286.909 239.156 286.218 239.622C285.527 240.088 284.713 240.338 283.88 240.34C283.326 240.369 282.773 240.283 282.254 240.087C281.735 239.891 281.263 239.589 280.867 239.201C280.471 238.813 280.16 238.346 279.954 237.831C279.748 237.316 279.651 236.764 279.67 236.21ZM286.59 236.21C286.565 235.678 286.384 235.165 286.069 234.735C285.755 234.305 285.321 233.976 284.822 233.791C284.323 233.605 283.78 233.57 283.261 233.69C282.742 233.81 282.269 234.08 281.902 234.466C281.535 234.852 281.289 235.337 281.196 235.861C281.102 236.386 281.164 236.926 281.375 237.416C281.586 237.905 281.935 238.322 282.381 238.614C282.826 238.906 283.348 239.061 283.88 239.06C284.251 239.069 284.619 239.001 284.962 238.859C285.304 238.717 285.613 238.505 285.868 238.237C286.124 237.968 286.32 237.649 286.444 237.3C286.569 236.951 286.618 236.579 286.59 236.21Z" fill="#E0E0E0"/>
<path d="M297.61 232.18V240.25H296.22V239C295.903 239.424 295.489 239.764 295.011 239.992C294.534 240.22 294.009 240.329 293.48 240.31C293.008 240.358 292.531 240.3 292.085 240.139C291.639 239.978 291.234 239.719 290.901 239.382C290.568 239.044 290.315 238.636 290.161 238.187C290.007 237.739 289.955 237.261 290.01 236.79V232.15H291.47V236.62C291.47 238.21 292.26 239 293.65 239C293.999 239.02 294.349 238.964 294.674 238.834C294.999 238.704 295.291 238.503 295.53 238.247C295.769 237.992 295.948 237.686 296.055 237.353C296.162 237.02 296.195 236.667 296.15 236.32V232.15L297.61 232.18Z" fill="#E0E0E0"/>
<path d="M304.73 232.1V233.52C304.62 233.511 304.51 233.511 304.4 233.52C304.043 233.496 303.686 233.552 303.353 233.683C303.02 233.814 302.721 234.018 302.477 234.279C302.233 234.541 302.05 234.853 301.941 235.194C301.833 235.535 301.802 235.896 301.85 236.25V240.25H300.39V232.18H301.79V233.53C302.097 233.04 302.536 232.647 303.056 232.394C303.575 232.141 304.155 232.04 304.73 232.1Z" fill="#E0E0E0"/>
<path d="M324.13 235.6V240.25H322.66V235.77C322.66 234.19 321.9 233.41 320.58 233.41C319.26 233.41 318.16 234.34 318.16 236.09V240.25H316.69V235.77C316.69 234.19 315.93 233.41 314.61 233.41C313.29 233.41 312.19 234.34 312.19 236.09V240.25H310.73V232.18H312.13V233.38C312.453 232.955 312.875 232.615 313.36 232.392C313.845 232.169 314.377 232.069 314.91 232.1C315.469 232.062 316.028 232.181 316.523 232.445C317.018 232.708 317.429 233.105 317.71 233.59C318.065 233.104 318.535 232.714 319.078 232.454C319.621 232.195 320.219 232.073 320.82 232.1C322.79 232.1 324.13 233.23 324.13 235.6Z" fill="#E0E0E0"/>
<path d="M326.56 229.68C326.56 229.415 326.665 229.16 326.853 228.973C327.041 228.785 327.295 228.68 327.56 228.68C327.758 228.68 327.951 228.739 328.116 228.848C328.28 228.958 328.408 229.115 328.484 229.297C328.56 229.48 328.579 229.681 328.541 229.875C328.502 230.069 328.407 230.247 328.267 230.387C328.127 230.527 327.949 230.622 327.755 230.661C327.561 230.699 327.36 230.68 327.177 230.604C326.995 230.528 326.838 230.4 326.729 230.236C326.619 230.071 326.56 229.878 326.56 229.68ZM326.81 232.18H328.28V240.25H326.81V232.18Z" fill="#E0E0E0"/>
<path d="M338.72 235.6V240.25H337.26V235.77C337.26 234.19 336.47 233.41 335.08 233.41C334.727 233.384 334.372 233.436 334.041 233.563C333.711 233.691 333.412 233.889 333.167 234.146C332.923 234.402 332.738 234.709 332.626 235.045C332.514 235.381 332.478 235.738 332.52 236.09V240.25H331.06V232.18H332.46V233.39C332.807 232.958 333.252 232.616 333.758 232.392C334.265 232.167 334.817 232.067 335.37 232.1C337.33 232.1 338.72 233.23 338.72 235.6Z" fill="#E0E0E0"/>
<path d="M349.09 229V240.3H347.69V239C347.356 239.444 346.92 239.8 346.418 240.039C345.917 240.278 345.365 240.391 344.81 240.37C343.717 240.37 342.669 239.936 341.897 239.163C341.124 238.391 340.69 237.343 340.69 236.25C340.69 235.157 341.124 234.109 341.897 233.337C342.669 232.564 343.717 232.13 344.81 232.13C345.346 232.111 345.88 232.217 346.368 232.441C346.856 232.665 347.285 233.001 347.62 233.42V229H349.09ZM347.64 236.26C347.614 235.728 347.433 235.215 347.119 234.785C346.805 234.355 346.371 234.027 345.872 233.841C345.372 233.655 344.829 233.62 344.31 233.74C343.791 233.86 343.319 234.13 342.952 234.516C342.585 234.902 342.339 235.387 342.245 235.912C342.152 236.436 342.214 236.976 342.425 237.466C342.635 237.955 342.985 238.372 343.43 238.664C343.876 238.956 344.397 239.111 344.93 239.11C345.305 239.12 345.678 239.051 346.024 238.906C346.37 238.761 346.682 238.544 346.938 238.27C347.194 237.996 347.389 237.671 347.51 237.316C347.631 236.96 347.675 236.584 347.64 236.21V236.26Z" fill="#E0E0E0"/>
<path d="M356.62 232.4C356.62 231.4 355.81 230.76 354.44 230.76C353.924 230.728 353.408 230.821 352.934 231.03C352.461 231.238 352.045 231.557 351.72 231.96L350.6 231.17C351.078 230.596 351.685 230.143 352.372 229.847C353.058 229.552 353.804 229.423 354.55 229.47C356.74 229.47 358.16 230.47 358.16 232.18C358.16 234.72 355.46 234.89 355.46 236.88H353.94C353.94 234.49 356.62 234.16 356.62 232.4ZM353.73 239.4C353.73 239.202 353.789 239.009 353.899 238.844C354.009 238.68 354.165 238.552 354.347 238.476C354.53 238.4 354.731 238.381 354.925 238.419C355.119 238.458 355.297 238.553 355.437 238.693C355.577 238.833 355.672 239.011 355.711 239.205C355.749 239.399 355.73 239.6 355.654 239.783C355.578 239.965 355.45 240.122 355.286 240.231C355.121 240.341 354.928 240.4 354.73 240.4C354.595 240.4 354.462 240.373 354.338 240.32C354.214 240.267 354.102 240.19 354.008 240.093C353.915 239.996 353.842 239.881 353.794 239.755C353.747 239.629 353.725 239.495 353.73 239.36V239.4Z" fill="#E0E0E0"/>
<path d="M492.38 302.76H428.07C424.183 302.757 420.456 301.212 417.707 298.463C414.958 295.714 413.413 291.987 413.41 288.1C413.41 286.175 413.789 284.268 414.526 282.49C415.263 280.711 416.343 279.095 417.704 277.734C419.065 276.372 420.681 275.293 422.46 274.556C424.239 273.819 426.145 273.44 428.07 273.44H492.38C496.261 273.451 499.98 275 502.72 277.748C505.461 280.496 507 284.219 507 288.1C507 291.981 505.461 295.704 502.72 298.452C499.98 301.2 496.261 302.749 492.38 302.76Z" fill="#FFAB19"/>
<path d="M439.2 288V283.9H440.2V288C440.2 289.6 440.94 290.32 442.2 290.32C443.46 290.32 444.2 289.6 444.2 288V283.94H445.2V288C445.2 290.09 444.05 291.2 442.15 291.2C440.25 291.2 439.2 290.1 439.2 288Z" fill="white"/>
<path d="M453.25 286.42C453.25 287.99 452.12 288.94 450.25 288.94H448.47V291.13H447.47V283.91H450.28C452.12 283.91 453.25 284.85 453.25 286.42ZM452.25 286.42C452.25 285.42 451.56 284.8 450.25 284.8H448.5V288H450.25C451.53 288 452.22 287.45 452.22 286.42H452.25Z" fill="white"/>
<path d="M454.77 283.91H457.82C458.317 283.873 458.816 283.939 459.286 284.103C459.756 284.268 460.187 284.528 460.552 284.867C460.917 285.206 461.208 285.616 461.407 286.073C461.606 286.529 461.709 287.022 461.709 287.52C461.709 288.018 461.606 288.511 461.407 288.967C461.208 289.424 460.917 289.834 460.552 290.173C460.187 290.512 459.756 290.772 459.286 290.936C458.816 291.101 458.317 291.167 457.82 291.13H454.77V283.91ZM457.77 290.23C458.14 290.252 458.512 290.199 458.86 290.073C459.209 289.946 459.529 289.75 459.799 289.496C460.069 289.241 460.285 288.934 460.432 288.594C460.579 288.253 460.655 287.886 460.655 287.515C460.655 287.144 460.579 286.777 460.432 286.436C460.285 286.095 460.069 285.788 459.799 285.534C459.529 285.28 459.209 285.083 458.86 284.957C458.512 284.831 458.14 284.777 457.77 284.8H455.8V290.23H457.77Z" fill="white"/>
<path d="M467.79 289.32H464L463.2 291.13H462.1L465.37 283.91H466.37L469.65 291.13H468.57L467.79 289.32ZM467.43 288.5L465.87 285L464.32 288.54L467.43 288.5Z" fill="white"/>
<path d="M471.82 284.8H469.34V283.91H475.34V284.8H472.86V291.13H471.86L471.82 284.8Z" fill="white"/>
<path d="M481.68 290.23V291.13H476.44V283.91H481.54V284.8H477.47V287H481.1V287.88H477.47V290.21L481.68 290.23Z" fill="white"/>
<path d="M505.17 453.57L527.09 404.67L514.39 362.67C510.553 349.942 511.455 336.254 516.93 324.14L538.29 278.46L553.11 270.68L588.3 264.63C589.65 265.08 622.3 282.19 622.3 282.19C628.704 285.82 634.451 290.502 639.3 296.04L609 401.77C609 401.77 615.61 422.63 622.09 453.57H505.17Z" fill="#FFAB19"/>
<g opacity="0.3">
<path d="M604.58 348.74C601.847 359.34 599.113 369.94 596.38 380.54C595.87 382.49 595.24 384.62 593.54 385.7C592.307 386.342 590.929 386.653 589.54 386.6L549.61 388.5C547.366 388.498 545.134 388.835 542.99 389.5C541.918 389.838 540.936 390.412 540.114 391.178C539.293 391.944 538.652 392.885 538.24 393.93C537.11 397.36 539.45 400.93 541.78 403.65C561.78 427.34 589.57 442.8 620.4 446.28L610.51 393.22L614.67 372.43L604.58 348.74Z" fill="black"/>
</g>
<path d="M547.06 370.29L547.64 370.35L549.3 370.58C550.75 370.78 552.84 371.06 555.42 371.37C560.6 372 567.76 372.71 575.7 373.15C583.64 373.59 590.85 373.65 596.06 373.58C598.67 373.58 600.78 373.51 602.23 373.46H603.91L602.24 373.54C600.78 373.62 598.67 373.68 596.06 373.73C590.85 373.83 583.64 373.79 575.69 373.36C567.74 372.93 560.58 372.18 555.41 371.51C552.82 371.18 550.73 370.89 549.29 370.66L547.63 370.4L547.06 370.29Z" fill="#FAFAFA"/>
<path d="M514 347.9C514 347.9 514.31 347.9 514.91 347.96L517.54 348.17L527.19 348.92C535.34 349.52 546.6 350.25 559.06 350.77C571.52 351.29 582.81 351.53 590.99 351.61L600.67 351.68H603.3H604.21C604.21 351.68 603.9 351.68 603.3 351.68H600.67C598.38 351.68 595.07 351.68 590.99 351.68C582.81 351.63 571.52 351.43 559.05 350.9C546.58 350.37 535.32 349.63 527.17 348.98C523.1 348.66 519.8 348.38 517.53 348.17L514.91 347.92L514 347.9Z" fill="#FAFAFA"/>
<path d="M522.32 328.71L523.16 328.76L525.55 328.93L534.37 329.57C541.82 330.08 552.12 330.7 563.51 331.14C574.9 331.58 585.21 331.75 592.68 331.81L601.52 331.86C599.43 331.86 596.41 331.86 592.68 331.86C585.21 331.86 574.89 331.68 563.5 331.24C552.11 330.8 541.81 330.17 534.36 329.62C530.64 329.34 527.63 329.1 525.55 328.91L523.15 328.7L522.32 328.71Z" fill="#FAFAFA"/>
<path d="M527.57 312.06C527.57 312 530.81 312.06 534.8 312.12C538.79 312.18 542.04 312.33 542.04 312.39C542.04 312.45 538.8 312.39 534.8 312.33C530.8 312.27 527.56 312.12 527.57 312.06Z" fill="#FAFAFA"/>
<path d="M587.59 303.82H587.86H588.66L591.57 303.73L601.2 303.53L610.82 303.39H614.53C614.623 303.374 614.718 303.374 614.81 303.39H614.53H613.74L610.82 303.47L601.2 303.67L591.58 303.81H588.66H587.59V303.82Z" fill="#FAFAFA"/>
<path d="M509.22 444.6H510.35L513.59 444.71L525.5 445.1C535.56 445.38 549.5 445.64 564.81 445.59C580.12 445.54 594.06 445.18 604.12 444.82L616.03 444.36L619.26 444.22C620 444.22 620.39 444.22 620.39 444.22L619.27 444.29L616.03 444.47C613.22 444.62 609.15 444.8 604.13 445C594.07 445.4 580.13 445.77 564.81 445.83C549.49 445.89 535.55 445.6 525.5 445.27C520.5 445.11 516.4 444.95 513.59 444.82L510.35 444.67L509.22 444.6Z" fill="#FAFAFA"/>
<path d="M518.81 425C518.81 424.94 540.49 425.42 567.21 426.07C593.93 426.72 615.61 427.29 615.61 427.35C615.61 427.41 593.94 426.93 567.21 426.28C540.48 425.63 518.81 425 518.81 425Z" fill="#FAFAFA"/>
<path d="M527.09 404.67H527.94H530.39L539.39 404.82C547.01 404.97 557.53 405.24 569.15 405.67C580.77 406.1 591.28 406.67 598.87 407.2C602.67 407.49 605.75 407.71 607.87 407.92L610.31 408.16L611.16 408.25L610.31 408.2L607.86 408.01C605.74 407.82 602.66 407.62 598.86 407.35C591.25 406.86 580.74 406.35 569.13 405.88C557.52 405.41 547 405.15 539.38 404.96L530.38 404.75L527.93 404.69L527.09 404.67Z" fill="#FAFAFA"/>
<path d="M543.79 276.66C543.79 276.66 513.14 283.45 509.58 316.42L505.79 350.11L518.91 354.11L543.79 276.66Z" fill="#FFAB19"/>
<path d="M515.16 360.27C515.056 360.117 514.979 359.948 514.93 359.77C514.81 359.43 514.59 358.93 514.39 358.26C513.824 356.382 513.469 354.447 513.33 352.49C513.004 345.986 514.328 339.505 517.18 333.65C518 331.94 518.92 330.31 519.83 328.8C520.74 327.29 521.6 325.8 522.38 324.36C523.769 321.832 524.921 319.181 525.82 316.44C526.6 314.1 527.16 312.18 527.56 310.86C527.75 310.25 527.91 309.74 528.04 309.34C528.079 309.157 528.146 308.982 528.24 308.82C528.223 309.006 528.189 309.19 528.14 309.37C528.04 309.78 527.91 310.29 527.76 310.91C527.41 312.25 526.91 314.19 526.18 316.56C525.309 319.328 524.177 322.006 522.8 324.56C522.03 326 521.17 327.49 520.27 329.03C519.37 330.57 518.47 332.15 517.65 333.84C514.826 339.619 513.453 346 513.65 352.43C513.765 354.37 514.063 356.296 514.54 358.18C515 359.53 515.2 360.26 515.16 360.27Z" fill="#263238"/>
<path d="M543.79 275.61L554.25 270.14H601.46L612.34 276.46C612.34 276.46 566.76 326.93 557.23 328.32C533.24 331.8 543.79 275.61 543.79 275.61Z" fill="#FFBE9D"/>
<path d="M518 294.23C518 294.18 523.05 294 529.28 293.83C535.51 293.66 540.57 293.58 540.57 293.64C540.57 293.7 535.52 293.88 529.29 294.04C523.06 294.2 518 294.29 518 294.23Z" fill="#FAFAFA"/>
<path d="M509.69 319.56C509.88 319.546 510.071 319.546 510.26 319.56L511.78 319.69C513.07 319.81 514.84 319.95 516.78 320.06C518.72 320.17 520.53 320.21 521.78 320.23H523.31C523.497 320.211 523.684 320.211 523.87 320.23C523.685 320.261 523.498 320.278 523.31 320.28C522.95 320.28 522.43 320.28 521.78 320.28C520.49 320.28 518.7 320.28 516.73 320.16C514.76 320.04 512.98 319.89 511.73 319.74C511.09 319.66 510.57 319.6 510.22 319.54C510.045 319.569 509.867 319.576 509.69 319.56Z" fill="#FAFAFA"/>
<path d="M639.39 296.08C648.64 305.75 651.27 317.92 651.27 329.01V381.39L604 380.48L605.62 334" fill="#FFAB19"/>
<path d="M605.62 320.49C605.598 320.348 605.598 320.203 605.62 320.06C605.62 319.77 605.75 319.36 605.88 318.84C606.269 317.356 606.774 315.905 607.39 314.5C609.373 309.82 612.344 305.624 616.1 302.2C620.5 298.2 625.65 295.96 629.52 295.5C631.052 295.295 632.608 295.353 634.12 295.67C634.529 295.755 634.93 295.872 635.32 296.02C635.459 296.063 635.593 296.12 635.72 296.19C633.709 295.694 631.622 295.585 629.57 295.87C624.641 296.809 620.085 299.141 616.44 302.59C611.654 307.051 608.088 312.662 606.08 318.89C605.79 319.92 605.66 320.5 605.62 320.49Z" fill="#263238"/>
<path d="M651.27 381.39C651.191 381.405 651.11 381.405 651.03 381.39H647.61L637.61 381.27L604 380.74H603.74V380.48C603.74 379.21 603.81 377.86 603.85 376.48C604.26 362.34 604.64 349.55 604.91 340.24C605.08 335.63 605.21 331.89 605.3 329.24C605.35 327.98 605.4 326.98 605.43 326.24V325.47C605.42 325.38 605.42 325.29 605.43 325.2C605.438 325.29 605.438 325.38 605.43 325.47V326.25C605.43 326.97 605.43 327.97 605.43 329.25C605.43 331.89 605.3 335.63 605.21 340.25C604.98 349.55 604.65 362.35 604.3 376.48C604.3 377.84 604.22 379.19 604.19 380.48L603.93 380.21L637.49 380.94L647.49 381.21L650.21 381.31H650.91L651.27 381.39Z" fill="#263238"/>
<path d="M605.57 367.14C605.57 367.08 615.79 367.14 628.39 367.33C640.99 367.52 651.22 367.67 651.22 367.72C651.22 367.77 641 367.72 628.39 367.54C615.78 367.36 605.57 367.2 605.57 367.14Z" fill="#FAFAFA"/>
<path d="M605.83 342.35H606.29L607.6 342.45L612.43 342.8C616.5 343.1 622.14 343.45 628.37 343.72C634.6 343.99 640.25 344.1 644.37 344.15L649.21 344.2H644.37C640.28 344.2 634.63 344.09 628.37 343.82C622.11 343.55 616.5 343.18 612.43 342.82L607.6 342.4L606.29 342.26L605.83 342.35Z" fill="#FAFAFA"/>
<path d="M607 321.94C607 321.94 609.25 321.13 613 320.18C622.779 317.732 632.896 316.921 642.94 317.78C646.79 318.12 649.14 318.56 649.14 318.56C649.14 318.56 648.99 318.56 648.7 318.56L647.47 318.41C646.4 318.27 644.85 318.11 642.93 317.96C632.899 317.182 622.808 317.992 613.03 320.36C611.16 320.81 609.65 321.22 608.62 321.52L607.43 321.87L607 321.94Z" fill="#FAFAFA"/>
<path d="M514.91 361.14L501.99 337.3H462.68L461.43 339.67L494.71 394.99L532.38 396.81L514.91 361.14Z" fill="#263238"/>
<path d="M513.67 363.51L500.75 339.67H461.43L493.46 397.36L531.14 399.17L513.67 363.51Z" fill="#455A64"/>
<path d="M481.39 349.67C481.697 349.923 482.073 350.078 482.469 350.116C482.866 350.154 483.264 350.073 483.614 349.884C483.964 349.694 484.249 349.404 484.434 349.051C484.618 348.698 484.693 348.299 484.648 347.903C484.604 347.507 484.443 347.134 484.185 346.831C483.927 346.527 483.585 346.308 483.202 346.2C482.819 346.092 482.412 346.101 482.034 346.226C481.656 346.351 481.324 346.585 481.08 346.9C480.761 347.311 480.615 347.831 480.673 348.348C480.731 348.865 480.988 349.339 481.39 349.67Z" fill="#EBEBEB"/>
<path d="M648.71 381.39V416C648.759 419.65 648.064 423.272 646.668 426.645C645.272 430.018 643.204 433.072 640.59 435.62C637.701 438.453 634.017 440.337 630.029 441.022C626.04 441.706 621.939 441.158 618.27 439.45L538.18 398.79L546.03 368.19L610.46 392.52L611.12 380.98L648.71 381.39Z" fill="#FFBE9D"/>
<path d="M550.78 371.43L544.56 363.71C542.534 361.208 539.974 359.19 537.067 357.806C534.16 356.422 530.98 355.706 527.76 355.71H522.33L518.63 359.88C518.63 359.88 492 361 491.06 364.29V365.29V365.91L513.8 367.44C513.8 367.44 494.46 367.38 493.3 367.44C492.14 367.5 487.9 367.12 487.99 369.39C488.06 371.26 490.26 372.73 493.61 373.22C494.98 373.42 511.74 374.87 511.74 374.87L493.29 374.7C491.23 374.7 491.49 378.01 492.72 378.42C493.72 378.75 517.31 385.64 517.31 385.64C517.31 385.64 513.31 388.31 510.1 388.08C506.89 387.85 501.3 383.67 500.1 385.64C498.9 387.61 499.17 388.77 499.87 389.23C500.57 389.69 508.2 393.63 510.75 394.33C513.3 395.03 534.1 398.33 534.1 398.33L541.61 399.54L550.78 371.43Z" fill="#FFBE9D"/>
<path d="M466.93 349C466.93 349 462.82 350.44 464.93 355.72C466.921 360.575 469.743 365.045 473.27 368.93C473.085 369.793 473.14 370.69 473.429 371.524C473.719 372.358 474.231 373.097 474.91 373.66C474.91 373.66 472 374.39 473.82 379.3C473.545 380.003 473.416 380.754 473.442 381.508C473.468 382.263 473.649 383.004 473.972 383.686C474.295 384.368 474.754 384.976 475.322 385.474C475.889 385.972 476.552 386.348 477.27 386.58C477.27 386.58 475.82 390.77 481.1 392.77C486.38 394.77 491.47 391.31 491.47 391.31L466.93 349Z" fill="#FFBE9D"/>
<path d="M475.27 368.49C479 369.49 483.11 370.3 486.56 371.61C487.7 372.04 488.83 372.06 489.56 373.02C489.961 373.478 490.188 374.063 490.201 374.672C490.214 375.281 490.012 375.875 489.63 376.35C489.205 376.665 488.716 376.883 488.198 376.989C487.679 377.094 487.144 377.084 486.63 376.96C482.644 376.334 478.743 375.257 475 373.75" fill="#FFBE9D"/>
<path d="M476.76 374.72C480.49 375.72 484.6 376.53 488.06 377.84C489.19 378.28 490.32 378.3 491.06 379.25C491.462 379.71 491.69 380.297 491.702 380.907C491.715 381.518 491.513 382.114 491.13 382.59C490.704 382.903 490.215 383.12 489.697 383.225C489.179 383.33 488.644 383.322 488.13 383.2C484.152 382.575 480.257 381.501 476.52 380" fill="#FFBE9D"/>
<path d="M478.88 381.14C482.62 382.14 486.72 382.95 490.18 384.26C491.32 384.69 492.44 384.72 493.18 385.67C493.578 386.13 493.802 386.716 493.813 387.324C493.824 387.933 493.621 388.526 493.24 389C492.816 389.316 492.327 389.534 491.808 389.64C491.29 389.745 490.754 389.735 490.24 389.61C486.273 388.976 482.389 387.903 478.66 386.41" fill="#FFBE9D"/>
<path d="M475.25 373.88C475.31 373.73 477.95 374.65 481.25 375.57C484.55 376.49 487.25 377.07 487.25 377.24C483.074 376.888 479.002 375.748 475.25 373.88Z" fill="#EB996E"/>
<path d="M474.56 379.39C476.868 379.921 479.148 380.569 481.39 381.33C485.15 382.43 488.23 383.22 488.2 383.39C483.482 382.732 478.886 381.384 474.56 379.39Z" fill="#EB996E"/>
<path d="M477 386.46C479.174 386.703 481.323 387.138 483.42 387.76C485.563 388.201 487.665 388.827 489.7 389.63C487.525 389.394 485.376 388.959 483.28 388.33C481.135 387.895 479.034 387.269 477 386.46Z" fill="#EB996E"/>
<path d="M472.16 367.72C472.22 367.56 475.53 368.72 479.69 369.72C483.85 370.72 487.29 371.43 487.26 371.6C486.492 371.647 485.72 371.583 484.97 371.41C483.146 371.128 481.337 370.754 479.55 370.29C477.759 369.834 475.993 369.283 474.26 368.64C473.519 368.437 472.812 368.127 472.16 367.72Z" fill="#EB996E"/>
<path d="M509.58 360.17C512.677 359.865 515.789 359.752 518.9 359.83C522.015 359.716 525.135 359.796 528.24 360.07C525.14 360.375 522.024 360.488 518.91 360.41C515.798 360.524 512.682 360.444 509.58 360.17Z" fill="#EB996E"/>
<path d="M619.72 413.36C619.62 413.36 619.79 412.02 619.65 409.88C619.575 408.631 619.398 407.39 619.12 406.17C618.773 404.679 618.298 403.22 617.7 401.81C617.075 400.416 616.332 399.078 615.48 397.81C614.772 396.779 613.983 395.806 613.12 394.9C611.64 393.34 610.56 392.56 610.62 392.48C610.909 392.608 611.178 392.777 611.42 392.98C612.132 393.476 612.801 394.032 613.42 394.64C614.335 395.53 615.169 396.501 615.91 397.54C616.808 398.82 617.582 400.183 618.22 401.61C618.836 403.05 619.308 404.547 619.63 406.08C619.888 407.328 620.032 408.596 620.06 409.87C620.088 410.729 620.048 411.588 619.94 412.44C619.916 412.756 619.842 413.067 619.72 413.36Z" fill="#EB996E"/>
<path d="M503.84 221.13C508.59 215.43 514.41 209.59 514.61 202.13C514.72 198.18 513.29 193.75 515.61 190.59C517.67 187.84 521.76 187.4 524.07 184.86C527.16 181.47 525.83 176.12 526.89 171.66C528.04 166.8 532.2 163.06 536.89 161.34C541.58 159.62 546.71 159.65 551.67 160.22L556.32 262.44C554.05 259.96 548.15 258.92 545.01 260.11C541.87 261.3 538.92 263.25 535.57 263.52C528.04 264.14 522.75 256.62 516.32 252.67C510.18 248.9 501.76 247.67 498.38 241.33C494.93 234.81 499.08 226.83 503.84 221.13Z" fill="#263238"/>
<path d="M517.9 253.49C517.013 253.301 516.164 252.963 515.39 252.49C514.384 251.812 513.638 250.813 513.274 249.655C512.911 248.498 512.952 247.251 513.39 246.12C513.87 244.65 515.21 243.6 516.79 242.58C517.658 242.044 518.432 241.369 519.08 240.58C519.778 239.679 520.132 238.559 520.08 237.42C519.96 235.12 518.77 233.12 518.02 231.02C517.601 229.986 517.368 228.886 517.33 227.77C517.353 226.64 517.7 225.539 518.33 224.6C519.72 222.744 521.439 221.158 523.4 219.92C525.275 218.685 526.991 217.224 528.51 215.57C531.026 212.677 532.719 209.161 533.41 205.39C533.897 202.873 533.897 200.287 533.41 197.77C533.284 197.091 533.107 196.422 532.88 195.77C532.822 195.534 532.728 195.308 532.6 195.1C532.5 195.1 532.83 196.1 533.05 197.83C533.439 200.904 533.168 204.025 532.256 206.985C531.344 209.946 529.811 212.678 527.76 215C526.268 216.59 524.589 217.993 522.76 219.18C520.693 220.478 518.885 222.15 517.43 224.11C516.719 225.196 516.334 226.462 516.32 227.76C516.358 228.985 516.612 230.193 517.07 231.33C517.89 233.52 519.07 235.48 519.14 237.46C519.206 238.402 518.937 239.337 518.38 240.1C517.795 240.823 517.096 241.444 516.31 241.94C515.537 242.452 514.808 243.027 514.13 243.66C513.283 244.523 512.716 245.621 512.503 246.811C512.291 248.001 512.443 249.228 512.94 250.33C513.431 251.357 514.218 252.214 515.2 252.79C515.813 253.16 516.492 253.404 517.2 253.51C517.432 253.554 517.671 253.547 517.9 253.49Z" fill="#455A64"/>
<path d="M555.16 276.2L555.48 259.05C555.48 259.05 538.48 256.53 534.48 234.42C532.53 223.42 532.76 205.34 533.48 190.55C534.08 177.24 548.18 163.7 561.48 164.87L604.61 172.28V179.44L603.42 276.94C603.344 283.282 600.772 289.339 596.26 293.798C591.749 298.256 585.663 300.758 579.32 300.76C576.112 300.766 572.935 300.132 569.975 298.895C567.015 297.657 564.331 295.842 562.081 293.555C559.832 291.268 558.061 288.555 556.872 285.575C555.684 282.595 555.102 279.408 555.16 276.2Z" fill="#FFBE9D"/>
<path d="M540.32 205.91C540.325 206.653 540.621 207.364 541.145 207.891C541.668 208.418 542.377 208.72 543.12 208.73C543.482 208.752 543.844 208.701 544.185 208.581C544.527 208.46 544.841 208.273 545.109 208.03C545.377 207.787 545.594 207.493 545.747 207.165C545.9 206.837 545.986 206.482 546 206.12C545.995 205.379 545.701 204.669 545.179 204.142C544.658 203.615 543.951 203.313 543.21 203.3C542.848 203.277 542.485 203.327 542.142 203.446C541.8 203.566 541.485 203.753 541.215 203.996C540.946 204.239 540.728 204.534 540.574 204.863C540.421 205.191 540.334 205.547 540.32 205.91Z" fill="#263238"/>
<path d="M537.57 199.89C537.93 200.25 540.05 198.62 543.11 198.57C546.17 198.52 548.44 200.02 548.77 199.63C548.93 199.47 548.56 198.8 547.57 198.11C546.219 197.212 544.622 196.754 543 196.8C541.409 196.819 539.867 197.349 538.6 198.31C537.7 199.05 537.39 199.72 537.57 199.89Z" fill="#263238"/>
<path d="M568.41 205.11C568.415 205.853 568.711 206.564 569.235 207.091C569.758 207.619 570.467 207.92 571.21 207.93C571.572 207.953 571.934 207.903 572.276 207.784C572.619 207.664 572.933 207.477 573.202 207.234C573.47 206.99 573.687 206.696 573.84 206.367C573.992 206.038 574.078 205.682 574.09 205.32C574.085 204.579 573.79 203.869 573.269 203.342C572.748 202.815 572.041 202.513 571.3 202.5C570.938 202.477 570.575 202.527 570.232 202.646C569.89 202.766 569.574 202.953 569.305 203.196C569.036 203.439 568.818 203.734 568.664 204.063C568.51 204.391 568.424 204.747 568.41 205.11Z" fill="#263238"/>
<path d="M567.65 199.92C568.01 200.29 570.14 198.65 573.2 198.61C576.26 198.57 578.53 200.05 578.85 199.67C579.01 199.5 578.64 198.84 577.65 198.15C576.315 197.249 574.73 196.79 573.12 196.84C571.528 196.859 569.984 197.385 568.71 198.34C567.79 199.08 567.48 199.76 567.65 199.92Z" fill="#263238"/>
<path d="M557 222.81C557 222.63 555.11 222.34 552 222C551.21 221.93 550.47 221.79 550.33 221.26C550.252 220.456 550.42 219.647 550.81 218.94C551.51 217.03 552.25 215.04 553.02 212.94C556.02 204.41 558.27 197.4 557.93 197.28C557.59 197.16 554.83 203.98 551.77 212.5L549.66 218.5C549.186 219.45 549.062 220.537 549.31 221.57C549.431 221.843 549.612 222.085 549.838 222.278C550.065 222.472 550.332 222.613 550.62 222.69C551.055 222.801 551.502 222.855 551.95 222.85C555 223 556.94 223 557 222.81Z" fill="#263238"/>
<path d="M555.48 259.05C565.913 259.02 576.132 256.095 585 250.6C585 250.6 577.58 266.09 555.35 264.41L555.48 259.05Z" fill="#EB996E"/>
<path d="M558.38 230.16C558.947 229.415 559.694 228.828 560.552 228.453C561.41 228.079 562.349 227.93 563.28 228.02C563.957 228.068 564.618 228.253 565.221 228.564C565.825 228.875 566.359 229.306 566.79 229.83C567.208 230.332 567.462 230.95 567.518 231.601C567.573 232.252 567.427 232.905 567.1 233.47C566.616 234.028 565.977 234.428 565.265 234.621C564.552 234.813 563.799 234.788 563.1 234.55C561.627 234.077 560.266 233.308 559.1 232.29C558.753 232.048 558.452 231.747 558.21 231.4C558.094 231.233 558.032 231.034 558.032 230.83C558.032 230.626 558.094 230.427 558.21 230.26" fill="#FFAB19"/>
<path d="M566 224.77C565.51 224.77 565.56 228.07 562.76 230.47C559.96 232.87 556.42 232.58 556.4 233.04C556.4 233.25 557.2 233.67 558.69 233.69C560.64 233.668 562.52 232.96 564 231.69C565.401 230.502 566.295 228.825 566.5 227C566.61 225.56 566.22 224.74 566 224.77Z" fill="#263238"/>
<path d="M566.65 188C566.97 188.82 570.01 188.37 573.65 188.74C577.29 189.11 580.17 190.04 580.65 189.28C580.86 188.92 580.34 188.15 579.15 187.37C577.584 186.387 575.803 185.797 573.96 185.65C572.118 185.46 570.257 185.71 568.53 186.38C567.16 186.89 566.51 187.55 566.65 188Z" fill="#263238"/>
<path d="M538.54 191C539.09 191.69 541.18 190.93 543.72 190.85C546.26 190.77 548.4 191.23 548.89 190.5C549.1 190.14 548.75 189.5 547.8 188.81C546.532 188.023 545.049 187.653 543.56 187.75C542.073 187.797 540.638 188.311 539.46 189.22C538.57 190 538.29 190.68 538.54 191Z" fill="#263238"/>
<path d="M593.28 198.4C585.98 189.46 565.28 173.4 555.14 168.96C553.53 168.24 552.02 166.75 551.03 166.75C548.902 167.854 546.905 169.195 545.08 170.75C539.7 175.46 535.43 186.54 533.36 193.39C530.36 184.87 531.36 172.62 537.26 165.8C543.16 158.98 549.48 155.21 558.5 154.8C567.52 154.39 574.31 156.38 582 161.12C585 162.99 596 172.12 599.11 177.39L593.28 198.4Z" fill="#FFAB19"/>
<path d="M554.47 155.23C552.97 155.39 563.03 147.14 569.31 146.01C575.658 144.906 582.188 146.273 587.56 149.83C591.14 152.23 594.14 155.58 598.11 157.27C601.11 158.56 604.5 158.77 607.65 159.71C611.803 161.033 615.474 163.55 618.204 166.947C620.934 170.344 622.602 174.47 623 178.81C623.27 182.49 622.6 186.17 622.54 189.86C622.48 193.55 623.16 197.48 625.66 200.2C627.82 202.55 631 203.64 633.66 205.34C636.874 207.419 639.424 210.377 641.006 213.861C642.589 217.346 643.139 221.212 642.59 225C641.93 229 640.02 233.18 641.42 237C642.33 239.53 644.53 241.35 646.01 243.6C647.45 245.871 648.173 248.523 648.086 251.211C647.999 253.898 647.105 256.497 645.52 258.67C641.77 259.08 638.81 261.9 635.89 264.3C632.97 266.7 629.24 268.91 625.62 267.84C620.92 266.46 618.68 260.17 613.83 259.48C608.98 258.79 605.61 263.85 601.12 265.55C596 267.48 590.02 264.55 586.92 260.05C583.82 255.55 583.08 249.84 582.97 244.36C582.83 237.48 583.71 230.22 587.78 224.68C590.7 220.68 595.34 217.29 595.41 212.36C595.47 207.63 591.16 203.89 590.41 199.22C589.78 195.12 591.98 191.22 593.68 187.42C595.38 183.62 598.53 178.05 596.14 174.66C596.17 174.63 579.83 152.41 554.47 155.23Z" fill="#263238"/>
<path d="M552.47 158.94C552.4 158.86 551.69 159.3 551.1 160.46C550.71 161.222 550.497 162.062 550.477 162.918C550.457 163.774 550.63 164.623 550.984 165.403C551.338 166.182 551.863 166.872 552.52 167.42C553.177 167.969 553.95 168.362 554.78 168.57C556.05 168.89 556.84 168.64 556.78 168.57C556.72 168.5 556.02 168.41 554.94 167.98C554.245 167.726 553.608 167.335 553.065 166.832C552.523 166.329 552.087 165.722 551.781 165.048C551.476 164.374 551.308 163.646 551.287 162.906C551.266 162.167 551.393 161.43 551.66 160.74C552.08 159.62 552.58 159 552.47 158.94Z" fill="#263238"/>
<path d="M546.26 168.4C546.33 168.64 547.8 168.4 549.26 167.25C550.72 166.1 551.26 164.78 551.08 164.66C550.9 164.54 549.97 165.53 548.69 166.52C547.41 167.51 546.17 168.15 546.26 168.4Z" fill="#263238"/>
<path d="M560.9 162.6C560.9 162.34 559.55 162.38 558.06 161.97C556.57 161.56 555.44 160.9 555.27 161.1C555.1 161.3 556.09 162.41 557.82 162.87C559.55 163.33 561 162.84 560.9 162.6Z" fill="#263238"/>
<path d="M560.74 158.54C560.74 158.28 559.41 158.27 557.86 158.54C556.31 158.81 555.08 159.17 555.12 159.42C555.16 159.67 556.45 159.69 558 159.42C559.55 159.15 560.78 158.79 560.74 158.54Z" fill="#263238"/>
<path d="M545.75 159.91C545.75 160.16 546.25 160.41 546.91 160.46C547.57 160.51 548.11 160.34 548.13 160.08C548.15 159.82 547.63 159.58 546.97 159.53C546.31 159.48 545.77 159.65 545.75 159.91Z" fill="#263238"/>
<path d="M545.58 162.44C545.58 162.7 546.34 162.91 547.28 162.91C548.22 162.91 548.99 162.7 548.99 162.44C548.99 162.18 548.22 161.98 547.28 161.98C546.34 161.98 545.58 162.19 545.58 162.44Z" fill="#263238"/>
<path d="M584.63 177.36C584.44 177.56 586.76 179.94 589.1 183.27C591.44 186.6 592.93 189.57 593.18 189.46C593.43 189.35 592.28 186.15 589.86 182.74C587.44 179.33 584.78 177.17 584.63 177.36Z" fill="#263238"/>
<path d="M583.82 170.76C583.61 170.94 586.31 174.28 589.07 178.76C591.83 183.24 593.63 187.16 593.88 187.06C594.13 186.96 592.69 182.84 589.88 178.27C587.07 173.7 584 170.6 583.82 170.76Z" fill="#263238"/>
<path d="M643.6 202.36C643.6 202.36 643.8 202.19 644.13 201.8C644.568 201.191 644.906 200.516 645.13 199.8C645.545 198.474 645.651 197.07 645.437 195.697C645.224 194.324 644.698 193.018 643.9 191.88C641.9 188.88 637.3 187.13 632.77 188.4C630.45 188.96 628.51 190.59 626.53 191.9C625.565 192.594 624.485 193.112 623.34 193.43C622.78 193.558 622.198 193.563 621.636 193.446C621.073 193.328 620.543 193.091 620.08 192.75C619.153 191.979 618.503 190.925 618.23 189.75C617.955 188.591 617.894 187.391 618.05 186.21C618.33 183.85 618.9 181.48 618.96 179.21C619.21 174.65 618.07 170.39 615.81 167.67C614.103 165.474 611.633 163.999 608.89 163.54C608.154 163.434 607.406 163.434 606.67 163.54C606.411 163.568 606.158 163.635 605.92 163.74C606.893 163.697 607.868 163.751 608.83 163.9C611.417 164.475 613.713 165.958 615.3 168.08C617.36 170.7 618.39 174.76 618.1 179.17C618.02 181.4 617.46 183.65 617.1 186.17C616.74 188.69 617.16 191.66 619.46 193.49C620.024 193.916 620.674 194.213 621.365 194.36C622.057 194.507 622.772 194.5 623.46 194.34C624.718 193.999 625.903 193.433 626.96 192.67C629.03 191.28 630.81 189.76 632.96 189.23C637.15 188.01 641.46 189.58 643.33 192.23C644.098 193.288 644.623 194.503 644.866 195.787C645.11 197.072 645.067 198.394 644.74 199.66C644.47 200.603 644.087 201.509 643.6 202.36Z" fill="#263238"/>
<path d="M507.35 204C507.599 203.97 507.85 203.954 508.1 203.95C508.449 203.979 508.786 204.084 509.09 204.256C509.394 204.429 509.657 204.666 509.86 204.95C510.217 205.368 510.414 205.9 510.414 206.45C510.414 207 510.217 207.532 509.86 207.95C509.375 208.476 508.739 208.84 508.038 208.99C507.338 209.14 506.609 209.071 505.95 208.79C505.168 208.378 504.504 207.774 504.021 207.033C503.538 206.293 503.252 205.442 503.19 204.56C503.102 202.457 503.492 200.361 504.33 198.43C505.12 196.43 506.23 194.15 508.2 192.92C509.214 192.326 510.393 192.077 511.56 192.21C512.821 192.383 514.066 192.661 515.28 193.04C516.57 193.46 517.925 193.643 519.28 193.58C519.971 193.519 520.643 193.32 521.256 192.996C521.869 192.671 522.411 192.227 522.85 191.69C523.584 190.672 524.11 189.519 524.396 188.297C524.683 187.075 524.725 185.808 524.52 184.57C524.27 182.26 523.74 180.16 523.7 178.18C523.682 176.341 524.05 174.518 524.78 172.83C525.838 170.355 527.57 168.227 529.78 166.69C531.36 165.62 532.39 165.29 532.36 165.2C532.098 165.227 531.842 165.295 531.6 165.4C530.903 165.669 530.234 166.004 529.6 166.4C527.229 167.886 525.351 170.039 524.2 172.59C523.386 174.352 522.963 176.269 522.96 178.21C522.96 180.3 523.47 182.45 523.69 184.67C524.056 186.94 523.51 189.262 522.17 191.13C521.801 191.578 521.345 191.947 520.83 192.213C520.314 192.48 519.749 192.639 519.17 192.68C517.926 192.727 516.684 192.555 515.5 192.17C514.231 191.77 512.93 191.482 511.61 191.31C510.249 191.164 508.878 191.462 507.7 192.16C505.41 193.63 504.3 196.02 503.5 198.16C502.634 200.219 502.257 202.451 502.4 204.68C502.489 205.683 502.836 206.646 503.407 207.474C503.979 208.303 504.755 208.97 505.66 209.41C506.444 209.733 507.31 209.798 508.133 209.597C508.956 209.395 509.694 208.938 510.24 208.29C510.465 208.012 510.631 207.692 510.729 207.348C510.827 207.004 510.854 206.645 510.81 206.29C510.731 205.717 510.488 205.178 510.11 204.74C509.874 204.434 509.571 204.184 509.225 204.011C508.878 203.838 508.497 203.745 508.11 203.74C507.836 203.746 507.57 203.837 507.35 204Z" fill="#263238"/>
<path d="M653 233.17C652.771 233.231 652.536 233.271 652.3 233.29C651.973 233.266 651.658 233.163 651.38 232.988C651.103 232.814 650.873 232.574 650.71 232.29C650.584 232.099 650.497 231.885 650.455 231.66C650.412 231.435 650.413 231.204 650.46 230.98C650.533 230.716 650.659 230.47 650.831 230.256C651.003 230.043 651.217 229.867 651.46 229.74C652.056 229.408 652.746 229.285 653.42 229.39C654.094 229.495 654.713 229.823 655.18 230.32C656.33 231.591 656.961 233.246 656.95 234.96C656.984 235.889 656.744 236.807 656.26 237.6C655.73 238.394 654.925 238.964 654 239.2C652.979 239.478 651.899 239.454 650.891 239.131C649.883 238.808 648.99 238.2 648.32 237.38C646.86 235.528 646.086 233.228 646.13 230.87C646.189 228.451 646.416 226.038 646.81 223.65C647.176 221.346 647.118 218.994 646.64 216.71C646.097 214.639 645.005 212.753 643.48 211.25C642.175 209.958 640.669 208.888 639.02 208.08C636.645 206.964 634.139 206.154 631.56 205.67C630.634 205.428 629.686 205.278 628.73 205.22C629.626 205.553 630.545 205.82 631.48 206.02C633.982 206.636 636.409 207.521 638.72 208.66C640.276 209.476 641.696 210.529 642.93 211.78C644.33 213.203 645.324 214.974 645.81 216.91C646.24 219.096 646.274 221.342 645.91 223.54C645.498 225.97 645.261 228.426 645.2 230.89C645.152 233.467 646 235.98 647.6 238C648.415 238.942 649.479 239.636 650.67 240C651.826 240.335 653.054 240.335 654.21 240C655.336 239.688 656.31 238.977 656.95 238C657.499 237.066 657.767 235.993 657.72 234.91C657.709 233.001 656.96 231.17 655.63 229.8C655.056 229.227 654.308 228.863 653.503 228.765C652.698 228.667 651.884 228.841 651.19 229.26C650.899 229.431 650.648 229.66 650.451 229.934C650.255 230.208 650.118 230.52 650.05 230.85C650.006 231.175 650.032 231.506 650.125 231.82C650.219 232.134 650.379 232.425 650.593 232.673C650.808 232.921 651.073 233.12 651.371 233.257C651.668 233.395 651.992 233.467 652.32 233.47C652.576 233.456 652.817 233.35 653 233.17Z" fill="#263238"/>
<path d="M591.25 148.62C591.369 148.396 591.466 148.162 591.54 147.92C591.85 147.286 592.38 146.785 593.03 146.51C594.06 146.08 595.207 146.013 596.28 146.32C596.978 146.476 597.612 146.839 598.099 147.362C598.586 147.885 598.904 148.543 599.01 149.25C599.59 152.41 595.92 156.4 591.57 155.63C589.31 155.247 587.206 154.231 585.5 152.7C583.635 151.017 581.959 149.136 580.5 147.09C579.01 144.994 577.289 143.072 575.37 141.36C573.519 139.736 571.23 138.693 568.79 138.36C566.568 138.175 564.349 138.754 562.5 140C560.886 141.061 559.521 142.46 558.5 144.1C557.117 146.463 556.204 149.071 555.81 151.78C555.66 152.72 555.57 153.46 555.53 153.96C555.489 154.218 555.489 154.482 555.53 154.74C555.795 153.785 556.012 152.817 556.18 151.84C556.695 149.226 557.67 146.723 559.06 144.45C560.052 142.929 561.354 141.634 562.88 140.65C564.606 139.518 566.665 139.006 568.72 139.2C570.983 139.537 573.098 140.531 574.8 142.06C576.669 143.732 578.346 145.607 579.8 147.65C581.282 149.749 582.993 151.678 584.9 153.4C586.746 155.029 589.018 156.098 591.45 156.48C592.569 156.647 593.712 156.554 594.789 156.207C595.866 155.86 596.849 155.269 597.66 154.48C598.403 153.822 598.974 152.993 599.322 152.064C599.671 151.135 599.787 150.134 599.66 149.15C599.517 148.276 599.088 147.474 598.44 146.87C597.867 146.375 597.18 146.031 596.44 145.87C595.255 145.567 594 145.694 592.9 146.23C592.203 146.575 591.664 147.172 591.39 147.9C591.293 148.127 591.245 148.373 591.25 148.62Z" fill="#263238"/>
<path d="M563.92 154.71C563.92 154.71 563.99 154.6 564.07 154.36C564.172 154.004 564.331 153.666 564.54 153.36C565.363 152.225 566.526 151.381 567.86 150.95C569.965 150.23 572.188 149.915 574.41 150.02C575.791 150.046 577.163 150.254 578.49 150.64C579.948 151.17 581.302 151.952 582.49 152.95C585.265 155.196 587.633 157.902 589.49 160.95C589.989 161.781 590.421 162.65 590.78 163.55C591.129 164.566 591.684 165.499 592.41 166.29C593.956 167.882 595.889 169.043 598.02 169.66C599.099 169.962 600.199 170.186 601.31 170.33C602.386 170.555 603.431 170.911 604.42 171.39C606.48 172.35 608.252 173.832 609.56 175.69C610.87 177.642 611.525 179.961 611.43 182.31C611.333 184.776 611.039 187.231 610.55 189.65C610.032 192.146 609.917 194.708 610.21 197.24C610.602 199.761 611.866 202.064 613.78 203.75C617.45 207.07 622.05 208.41 625.27 211.25C626.896 212.528 628.141 214.226 628.87 216.16C629.453 218.01 629.28 220.016 628.39 221.74C627.61 223.47 626.52 225.02 625.76 226.74C624.941 228.364 624.675 230.211 625 232C625.493 233.588 626.53 234.952 627.93 235.85C629.092 236.619 630.204 237.461 631.26 238.37C632.033 239.148 632.616 240.095 632.963 241.136C633.31 242.177 633.412 243.283 633.26 244.37C633.12 245.775 632.849 247.165 632.45 248.52C632.294 248.991 632.17 249.472 632.08 249.96C632.149 249.851 632.203 249.733 632.24 249.61C632.34 249.38 632.47 249.03 632.63 248.61C633.11 247.259 633.445 245.861 633.63 244.44C633.748 243.394 633.691 242.337 633.46 241.31C633.169 240.052 632.523 238.903 631.6 238C630.546 237.058 629.434 236.183 628.27 235.38C626.997 234.558 626.058 233.31 625.62 231.86C625.35 230.21 625.628 228.517 626.41 227.04C627.14 225.44 628.25 223.9 629.09 222.04C630.072 220.142 630.273 217.935 629.65 215.89C628.883 213.806 627.562 211.97 625.83 210.58C622.43 207.58 617.83 206.21 614.39 203.06C612.629 201.506 611.472 199.382 611.12 197.06C610.845 194.627 610.963 192.165 611.47 189.77C611.968 187.298 612.262 184.79 612.35 182.27C612.445 179.739 611.727 177.243 610.3 175.15C608.91 173.156 607.011 171.571 604.8 170.56C603.745 170.059 602.634 169.687 601.49 169.45C600.404 169.309 599.328 169.095 598.27 168.81C596.277 168.253 594.463 167.184 593.01 165.71C592.342 164.999 591.834 164.154 591.52 163.23C591.138 162.291 590.68 161.384 590.15 160.52C588.212 157.415 585.745 154.673 582.86 152.42C581.613 151.39 580.19 150.594 578.66 150.07C577.282 149.69 575.86 149.495 574.43 149.49C572.146 149.423 569.871 149.8 567.73 150.6C566.348 151.083 565.168 152.016 564.38 153.25C564.18 153.571 564.044 153.927 563.98 154.3C563.92 154.59 563.9 154.71 563.92 154.71Z" fill="#455A64"/>
<path d="M694 453.57C694 453.71 554.31 453.83 382 453.83C209.69 453.83 70 453.71 70 453.57C70 453.43 209.66 453.31 382 453.31C554.34 453.31 694 453.42 694 453.57Z" fill="#263238"/>
<path d="M327.79 364.2C327.766 364.104 327.726 364.012 327.67 363.93L327.26 363.16C326.88 362.5 326.26 361.54 325.46 360.35C323.097 356.976 320.072 354.118 316.57 351.95C314.121 350.459 311.403 349.464 308.57 349.02C305.307 348.543 301.977 348.887 298.88 350.02C295.408 351.244 292.474 353.647 290.59 356.81C288.69 360.13 288.07 364.04 286.96 367.81C286.443 369.656 285.662 371.418 284.64 373.04C283.569 374.555 282.239 375.868 280.71 376.92C279.23 378.01 277.71 379 276.27 380.14C274.894 381.273 273.68 382.588 272.66 384.05C270.831 386.768 269.575 389.83 268.97 393.05C268.426 395.838 268.261 398.688 268.48 401.52C268.816 405.604 269.542 409.645 270.65 413.59C271.01 414.99 271.32 416.06 271.54 416.79C271.633 417.169 271.753 417.54 271.9 417.9C271.851 417.515 271.774 417.134 271.67 416.76C271.48 415.96 271.22 414.88 270.9 413.52C269.902 409.584 269.249 405.569 268.95 401.52C268.774 398.727 268.965 395.923 269.52 393.18C270.129 390.036 271.371 387.049 273.17 384.4C274.16 382.987 275.341 381.718 276.68 380.63C278.05 379.52 279.59 378.55 281.1 377.44C282.691 376.358 284.079 375.004 285.2 373.44C286.26 371.762 287.072 369.94 287.61 368.03C288.73 364.24 289.34 360.39 291.17 357.21C292.967 354.17 295.773 351.856 299.1 350.67C302.099 349.562 305.326 349.219 308.49 349.67C311.251 350.086 313.906 351.03 316.31 352.45C319.787 354.558 322.818 357.327 325.23 360.6C326.09 361.75 326.71 362.69 327.12 363.32C327.323 363.629 327.547 363.923 327.79 364.2Z" fill="#E0E0E0"/>
<path d="M279 377.88C280 376.93 280.53 377.59 281.91 377.88C283.286 378.187 284.567 378.825 285.64 379.74C288.005 381.692 289.747 384.293 290.652 387.224C291.556 390.154 291.584 393.285 290.73 396.23C288.52 396.351 286.318 395.871 284.358 394.842C282.398 393.812 280.754 392.272 279.599 390.383C278.444 388.494 277.823 386.328 277.8 384.114C277.777 381.901 278.354 379.722 279.47 377.81" fill="#E0E0E0"/>
<path d="M321.2 358.67C321.72 357.36 322.46 357.75 323.81 357.38C325.185 357.063 326.617 357.087 327.98 357.45C330.955 358.197 333.646 359.797 335.723 362.053C337.8 364.31 339.172 367.124 339.67 370.15C337.727 371.21 335.533 371.725 333.322 371.639C331.11 371.553 328.963 370.869 327.108 369.662C325.253 368.454 323.76 366.766 322.786 364.778C321.813 362.79 321.396 360.576 321.58 358.37" fill="#E0E0E0"/>
<path d="M269.69 403.89C271.095 402.267 272.852 400.985 274.826 400.141C276.801 399.298 278.941 398.915 281.086 399.022C283.23 399.129 285.322 399.723 287.203 400.759C289.083 401.794 290.704 403.245 291.94 405C288.779 407.876 284.674 409.494 280.4 409.55C276.086 409.439 271.958 407.77 268.78 404.85" fill="#E0E0E0"/>
<path d="M273.16 384.47C271.006 384.534 268.865 384.111 266.897 383.233C264.929 382.355 263.183 381.045 261.791 379.4C260.399 377.755 259.395 375.818 258.855 373.732C258.315 371.645 258.252 369.464 258.67 367.35C260.934 366.824 263.298 366.92 265.511 367.629C267.725 368.337 269.705 369.632 271.243 371.374C272.78 373.117 273.818 375.243 274.245 377.527C274.673 379.812 274.474 382.169 273.67 384.35" fill="#E0E0E0"/>
<path d="M288 361.64C285.99 362.413 283.831 362.723 281.685 362.548C279.538 362.373 277.458 361.717 275.6 360.629C273.741 359.541 272.152 358.048 270.948 356.262C269.745 354.476 268.96 352.441 268.65 350.31C270.606 349.074 272.859 348.388 275.172 348.323C277.486 348.259 279.773 348.819 281.795 349.944C283.817 351.07 285.498 352.719 286.662 354.719C287.826 356.719 288.43 358.996 288.41 361.31" fill="#E0E0E0"/>
<path d="M293 354.18C295.011 353.407 297.169 353.097 299.316 353.272C301.462 353.447 303.542 354.103 305.4 355.191C307.259 356.279 308.849 357.772 310.052 359.558C311.255 361.345 312.041 363.379 312.35 365.51C310.394 366.746 308.141 367.433 305.828 367.497C303.515 367.561 301.227 367.001 299.205 365.876C297.183 364.75 295.502 363.101 294.338 361.101C293.174 359.101 292.57 356.824 292.59 354.51" fill="#E0E0E0"/>
<path d="M298.93 350.17C296.89 349.479 295.031 348.337 293.492 346.829C291.954 345.321 290.774 343.487 290.041 341.461C289.308 339.435 289.041 337.27 289.259 335.127C289.477 332.983 290.174 330.917 291.3 329.08C293.599 329.378 295.775 330.292 297.597 331.725C299.419 333.158 300.821 335.056 301.654 337.219C302.486 339.383 302.719 341.731 302.328 344.016C301.937 346.3 300.936 348.437 299.43 350.2" fill="#E0E0E0"/>
<path d="M314.15 350.89C313.415 348.865 313.147 346.701 313.363 344.558C313.58 342.414 314.277 340.348 315.402 338.511C316.527 336.674 318.051 335.114 319.862 333.947C321.672 332.78 323.722 332.036 325.86 331.77C327.061 333.753 327.704 336.023 327.721 338.34C327.738 340.658 327.13 342.937 325.959 344.938C324.788 346.938 323.099 348.585 321.07 349.705C319.04 350.825 316.746 351.376 314.43 351.3" fill="#E0E0E0"/>
<path d="M252.81 453.75L244.7 402.87L306.83 403.62L300.7 453.08" fill="#263238"/>
<path d="M279.62 393.57C281.12 394.587 282.856 395.202 284.661 395.354C286.467 395.507 288.281 395.192 289.93 394.44C291.532 393.535 292.885 392.248 293.869 390.693C294.853 389.139 295.437 387.365 295.57 385.53C294.007 384.677 292.271 384.186 290.493 384.092C288.714 383.998 286.937 384.305 285.292 384.989C283.648 385.673 282.177 386.717 280.99 388.045C279.802 389.373 278.928 390.95 278.43 392.66" fill="#FFAB19"/>
<path d="M308 404.53C309.501 405.543 311.237 406.155 313.042 406.307C314.847 406.459 316.66 406.147 318.31 405.4C319.912 404.495 321.265 403.208 322.249 401.653C323.233 400.099 323.817 398.325 323.95 396.49C322.386 395.637 320.651 395.146 318.872 395.052C317.094 394.958 315.317 395.265 313.672 395.949C312.027 396.633 310.557 397.677 309.37 399.005C308.182 400.333 307.307 401.91 306.81 403.62" fill="#FFAB19"/>
<path d="M292.07 380.06C292.768 381.733 293.882 383.199 295.307 384.319C296.732 385.44 298.42 386.177 300.21 386.46C302.046 386.581 303.884 386.247 305.56 385.488C307.236 384.73 308.699 383.569 309.82 382.11C308.939 380.568 307.744 379.229 306.312 378.178C304.881 377.127 303.245 376.389 301.51 376.01C299.762 375.725 297.974 375.812 296.263 376.267C294.551 376.722 292.955 377.534 291.58 378.65" fill="#FFAB19"/>
<path d="M302.44 392.74C300.631 392.647 298.829 393.02 297.205 393.824C295.582 394.627 294.193 395.835 293.17 397.33C292.267 398.932 291.774 400.733 291.736 402.572C291.697 404.411 292.115 406.231 292.95 407.87C294.734 407.793 296.478 407.317 298.053 406.476C299.628 405.634 300.994 404.45 302.05 403.01C303.106 401.57 303.825 399.911 304.154 398.156C304.483 396.401 304.413 394.595 303.95 392.87" fill="#FFAB19"/>
<path d="M312.45 412.76C311.602 414.362 311.179 416.154 311.221 417.966C311.263 419.778 311.769 421.549 312.69 423.11C313.764 424.603 315.191 425.808 316.843 426.618C318.495 427.427 320.322 427.816 322.16 427.75C322.791 426.09 323.065 424.315 322.964 422.542C322.862 420.769 322.387 419.037 321.57 417.46C319.94 414.46 317 413.03 313.31 412.19" fill="#FFAB19"/>
<path d="M329 415.12C328.29 414.442 327.454 413.909 326.54 413.55C325.455 413.179 324.317 412.98 323.17 412.96C321.64 412.966 320.111 413.056 318.59 413.23C316.694 413.477 314.767 413.314 312.94 412.75C310.864 411.908 309.194 410.296 308.28 408.25C307.295 406.062 306.621 403.746 306.28 401.37C305.933 398.889 305.119 396.497 303.88 394.32C302.407 392.287 300.637 390.487 298.63 388.98C296.731 387.525 295.047 385.808 293.63 383.88C291.396 380.42 290.507 376.261 291.13 372.19C291.505 369.469 292.553 366.884 294.18 364.67C294.607 364.075 295.082 363.517 295.6 363C295.776 362.81 295.974 362.642 296.19 362.5C296.045 362.714 295.881 362.915 295.7 363.1C295.2 363.633 294.739 364.201 294.32 364.8C292.812 367.016 291.855 369.56 291.53 372.22C290.99 376.165 291.896 380.171 294.08 383.5C295.481 385.39 297.141 387.073 299.01 388.5C301.083 390.036 302.905 391.884 304.41 393.98C305.698 396.227 306.537 398.703 306.88 401.27C307.211 403.59 307.857 405.854 308.8 408C309.634 409.919 311.174 411.444 313.1 412.26C314.85 412.815 316.696 412.995 318.52 412.79C320.058 412.634 321.605 412.577 323.15 412.62C324.333 412.661 325.5 412.905 326.6 413.34C327.295 413.621 327.929 414.031 328.47 414.55C328.61 414.681 328.738 414.825 328.85 414.98C328.93 415.06 329 415.11 329 415.12Z" fill="#FFAB19"/>
<path d="M329 415.12C328.29 414.442 327.454 413.909 326.54 413.55C325.455 413.179 324.317 412.98 323.17 412.96C321.64 412.966 320.111 413.056 318.59 413.23C316.694 413.477 314.767 413.314 312.94 412.75C310.864 411.908 309.194 410.296 308.28 408.25C307.295 406.062 306.621 403.746 306.28 401.37C305.933 398.889 305.119 396.497 303.88 394.32C302.407 392.287 300.637 390.487 298.63 388.98C296.731 387.525 295.047 385.808 293.63 383.88C291.396 380.42 290.507 376.261 291.13 372.19C291.505 369.469 292.553 366.884 294.18 364.67C294.607 364.075 295.082 363.517 295.6 363C295.776 362.81 295.974 362.642 296.19 362.5C296.045 362.714 295.881 362.915 295.7 363.1C295.2 363.633 294.739 364.201 294.32 364.8C292.812 367.016 291.855 369.56 291.53 372.22C290.99 376.165 291.896 380.171 294.08 383.5C295.481 385.39 297.141 387.073 299.01 388.5C301.083 390.036 302.905 391.884 304.41 393.98C305.698 396.227 306.537 398.703 306.88 401.27C307.211 403.59 307.857 405.854 308.8 408C309.634 409.919 311.174 411.444 313.1 412.26C314.85 412.815 316.696 412.995 318.52 412.79C320.058 412.634 321.605 412.577 323.15 412.62C324.333 412.661 325.5 412.905 326.6 413.34C327.295 413.621 327.929 414.031 328.47 414.55C328.61 414.681 328.738 414.825 328.85 414.98C328.93 415.06 329 415.11 329 415.12Z" fill="#FFAB19"/>
<path d="M210.37 420.33C210.5 417.723 209.978 415.124 208.852 412.769C207.725 410.414 206.03 408.376 203.92 406.84C201.809 405.304 199.349 404.318 196.762 403.97C194.174 403.623 191.541 403.925 189.1 404.85C190.947 408.964 193.823 412.532 197.45 415.21C201.078 417.889 205.335 419.586 209.81 420.14" fill="#FFAB19"/>
<path d="M206.26 422.5C203.26 425.83 203.42 431.2 205.6 435.15C207.78 439.1 211.51 441.92 215.26 444.43C216.529 440.143 216.356 435.557 214.768 431.377C213.181 427.197 210.265 423.654 206.47 421.29" fill="#FFAB19"/>
<path d="M221 406.85C221.244 409.282 221.977 411.639 223.155 413.781C224.333 415.922 225.931 417.804 227.854 419.312C229.777 420.82 231.985 421.925 234.346 422.558C236.706 423.192 239.17 423.342 241.59 423C240.41 418.12 238.45 413.2 234.68 409.88C230.91 406.56 224.96 405.34 220.79 408.12" fill="#FFAB19"/>
<path d="M220.88 401.87C220.12 397.43 215.74 394.2 211.25 393.79C206.76 393.38 202.32 395.28 198.72 398C201.447 401.126 205.263 403.093 209.391 403.5C213.518 403.907 217.646 402.723 220.93 400.19" fill="#FFAB19"/>
<path d="M197.74 439.68C193.47 443.32 192.41 449.81 194.18 455.13C195.95 460.45 200.1 464.7 204.77 467.81C206.56 462.53 207.69 456.88 206.77 451.39C205.85 445.9 202.52 440.59 197.41 438.39" fill="#FFAB19"/>
<path d="M220.19 389.4C221.32 387.73 222.819 386.343 224.572 385.346C226.324 384.349 228.283 383.77 230.296 383.653C232.309 383.536 234.322 383.884 236.178 384.671C238.034 385.458 239.684 386.662 241 388.19C240.129 390.145 238.721 391.814 236.94 393.002C235.16 394.19 233.079 394.85 230.939 394.904C228.799 394.959 226.687 394.406 224.849 393.31C223.01 392.213 221.52 390.618 220.55 388.71" fill="#FFAB19"/>
<path d="M225.42 376.58C223.116 377.287 220.687 377.495 218.296 377.192C215.905 376.889 213.606 376.081 211.551 374.821C209.496 373.561 207.732 371.879 206.377 369.886C205.022 367.893 204.106 365.634 203.69 363.26C207.102 362.86 210.551 362.91 213.95 363.41C217.372 363.923 220.549 365.488 223.04 367.89C224.165 369.002 224.978 370.39 225.396 371.916C225.814 373.441 225.822 375.05 225.42 376.58Z" fill="#FFAB19"/>
<path d="M235.28 373.27C233.687 371.971 232.402 370.335 231.516 368.48C230.631 366.625 230.167 364.597 230.158 362.541C230.15 360.486 230.596 358.454 231.466 356.591C232.336 354.729 233.608 353.083 235.19 351.77C238.271 355.528 240.365 359.997 241.28 364.77C241.714 366.539 241.697 368.389 241.23 370.15C240.987 371.024 240.508 371.815 239.844 372.434C239.181 373.054 238.359 373.478 237.47 373.66" fill="#FFAB19"/>
<g opacity="0.4">
<path d="M210.37 420.33C210.5 417.723 209.978 415.124 208.852 412.769C207.725 410.414 206.03 408.376 203.92 406.84C201.809 405.304 199.349 404.318 196.762 403.97C194.174 403.623 191.541 403.925 189.1 404.85C190.947 408.964 193.823 412.532 197.45 415.21C201.078 417.889 205.335 419.586 209.81 420.14" fill="black"/>
</g>
<g opacity="0.4">
<path d="M206.26 422.5C203.26 425.83 203.42 431.2 205.6 435.15C207.78 439.1 211.51 441.92 215.26 444.43C216.529 440.143 216.356 435.557 214.768 431.377C213.181 427.197 210.265 423.654 206.47 421.29" fill="black"/>
</g>
<g opacity="0.4">
<path d="M221 406.85C221.244 409.282 221.977 411.639 223.155 413.781C224.333 415.922 225.931 417.804 227.854 419.312C229.777 420.82 231.985 421.925 234.346 422.558C236.706 423.192 239.17 423.342 241.59 423C240.41 418.12 238.45 413.2 234.68 409.88C230.91 406.56 224.96 405.34 220.79 408.12" fill="black"/>
</g>
<g opacity="0.4">
<path d="M220.88 401.87C220.12 397.43 215.74 394.2 211.25 393.79C206.76 393.38 202.32 395.28 198.72 398C201.447 401.126 205.263 403.093 209.391 403.5C213.518 403.907 217.646 402.723 220.93 400.19" fill="black"/>
</g>
<g opacity="0.4">
<path d="M197.74 439.68C193.47 443.32 192.41 449.81 194.18 455.13C195.95 460.45 200.1 464.7 204.77 467.81C206.56 462.53 207.69 456.88 206.77 451.39C205.85 445.9 202.52 440.59 197.41 438.39" fill="black"/>
</g>
<g opacity="0.4">
<path d="M220.19 389.4C221.32 387.73 222.819 386.343 224.572 385.346C226.324 384.349 228.283 383.77 230.296 383.653C232.309 383.536 234.322 383.884 236.178 384.671C238.034 385.458 239.684 386.662 241 388.19C240.129 390.145 238.721 391.814 236.94 393.002C235.16 394.19 233.079 394.85 230.939 394.904C228.799 394.959 226.687 394.406 224.849 393.31C223.01 392.213 221.52 390.618 220.55 388.71" fill="black"/>
</g>
<g opacity="0.4">
<path d="M225.42 376.58C223.116 377.287 220.687 377.495 218.296 377.192C215.905 376.889 213.606 376.081 211.551 374.821C209.496 373.561 207.732 371.879 206.377 369.886C205.022 367.893 204.106 365.634 203.69 363.26C207.102 362.86 210.551 362.91 213.95 363.41C217.372 363.923 220.549 365.488 223.04 367.89C224.165 369.002 224.978 370.39 225.396 371.916C225.814 373.441 225.822 375.05 225.42 376.58Z" fill="black"/>
</g>
<g opacity="0.4">
<path d="M235.28 373.27C233.687 371.971 232.402 370.335 231.516 368.48C230.631 366.625 230.167 364.597 230.158 362.541C230.15 360.486 230.596 358.454 231.466 356.591C232.336 354.729 233.608 353.083 235.19 351.77C238.271 355.528 240.365 359.997 241.28 364.77C241.714 366.539 241.697 368.389 241.23 370.15C240.987 371.024 240.508 371.815 239.844 372.434C239.181 373.054 238.359 373.478 237.47 373.66" fill="black"/>
</g>
<path d="M252.32 404.5C252.32 404.5 252.32 404.38 252.32 404.15C252.32 403.92 252.32 403.55 252.38 403.15C252.44 402.25 252.52 400.92 252.55 399.22C252.755 394.405 251.969 389.599 250.24 385.1C248.989 382.031 247.045 379.293 244.56 377.1C241.718 374.577 238.03 373.217 234.23 373.29C232.202 373.314 230.209 373.814 228.41 374.75C226.546 375.749 224.987 377.235 223.9 379.05C221.65 382.77 221.09 387.43 221.29 392.05C221.49 396.67 222.11 401.26 221.6 405.71C221.372 407.897 220.798 410.033 219.9 412.04C219.045 413.988 217.735 415.703 216.08 417.04C214.46 418.219 212.665 419.137 210.76 419.76C209.02 420.347 207.344 421.111 205.76 422.04C202.949 423.787 200.67 426.27 199.17 429.22C197.93 431.651 197.279 434.341 197.27 437.07C197.261 439.135 197.599 441.187 198.27 443.14C198.869 444.799 199.658 446.382 200.62 447.86C200.62 447.86 200.54 447.78 200.4 447.6C200.26 447.42 200.04 447.14 199.8 446.76C199.071 445.659 198.476 444.473 198.03 443.23C197.303 441.257 196.921 439.173 196.9 437.07C196.867 434.271 197.502 431.505 198.75 429C200.272 425.955 202.596 423.383 205.47 421.56C208.54 419.56 212.6 419.01 215.72 416.56C218.84 414.11 220.49 409.91 220.97 405.63C221.45 401.35 220.81 396.76 220.65 392.07C220.49 387.38 221.01 382.61 223.37 378.73C224.518 376.814 226.167 375.248 228.14 374.2C230.031 373.226 232.123 372.708 234.25 372.69C238.195 372.633 242.018 374.061 244.96 376.69C247.487 378.952 249.456 381.769 250.71 384.92C251.749 387.497 252.423 390.206 252.71 392.97C252.918 395.05 252.975 397.142 252.88 399.23C252.81 400.94 252.68 402.23 252.58 403.16C252.58 403.58 252.49 403.91 252.45 404.16C252.421 404.278 252.377 404.392 252.32 404.5Z" fill="#FFAB19"/>
<g opacity="0.4">
<path d="M252.32 404.5C252.32 404.5 252.32 404.38 252.32 404.15C252.32 403.92 252.32 403.55 252.38 403.15C252.44 402.25 252.52 400.92 252.55 399.22C252.755 394.405 251.969 389.599 250.24 385.1C248.989 382.031 247.045 379.293 244.56 377.1C241.718 374.577 238.03 373.217 234.23 373.29C232.202 373.314 230.209 373.814 228.41 374.75C226.546 375.749 224.987 377.235 223.9 379.05C221.65 382.77 221.09 387.43 221.29 392.05C221.49 396.67 222.11 401.26 221.6 405.71C221.372 407.897 220.798 410.033 219.9 412.04C219.045 413.988 217.735 415.703 216.08 417.04C214.46 418.219 212.665 419.137 210.76 419.76C209.02 420.347 207.344 421.111 205.76 422.04C202.949 423.787 200.67 426.27 199.17 429.22C197.93 431.651 197.279 434.341 197.27 437.07C197.261 439.135 197.599 441.187 198.27 443.14C198.869 444.799 199.658 446.382 200.62 447.86C200.62 447.86 200.54 447.78 200.4 447.6C200.26 447.42 200.04 447.14 199.8 446.76C199.071 445.659 198.476 444.473 198.03 443.23C197.303 441.257 196.921 439.173 196.9 437.07C196.867 434.271 197.502 431.505 198.75 429C200.272 425.955 202.596 423.383 205.47 421.56C208.54 419.56 212.6 419.01 215.72 416.56C218.84 414.11 220.49 409.91 220.97 405.63C221.45 401.35 220.81 396.76 220.65 392.07C220.49 387.38 221.01 382.61 223.37 378.73C224.518 376.814 226.167 375.248 228.14 374.2C230.031 373.226 232.123 372.708 234.25 372.69C238.195 372.633 242.018 374.061 244.96 376.69C247.487 378.952 249.456 381.769 250.71 384.92C251.749 387.497 252.423 390.206 252.71 392.97C252.918 395.05 252.975 397.142 252.88 399.23C252.81 400.94 252.68 402.23 252.58 403.16C252.58 403.58 252.49 403.91 252.45 404.16C252.421 404.278 252.377 404.392 252.32 404.5Z" fill="black"/>
</g>
<path d="M342.77 393.4C343.347 391.95 343.662 390.41 343.7 388.85C343.721 387.025 343.307 385.222 342.49 383.59C341.382 381.448 339.6 379.73 337.42 378.7C336.167 378.091 334.81 377.725 333.42 377.62C331.914 377.533 330.404 377.712 328.96 378.15C325.91 378.95 322.9 380.68 319.3 381.39C317.451 381.813 315.526 381.765 313.7 381.25C311.794 380.621 310.176 379.329 309.14 377.61C306.97 374.25 306.36 370.02 303.74 366.92C302.434 365.414 300.733 364.303 298.83 363.71C296.982 363.116 295.03 362.919 293.1 363.13C289.403 363.532 285.994 365.318 283.56 368.13C281.35 370.661 279.734 373.654 278.83 376.89C277.996 379.704 277.638 382.638 277.77 385.57C278.028 389.831 278.566 394.07 279.38 398.26C279.63 399.71 279.83 400.86 279.98 401.7C280.03 402.06 280.08 402.35 280.11 402.6C280.14 402.85 280.11 402.9 280.11 402.91C280.068 402.814 280.038 402.713 280.02 402.61C279.97 402.37 279.9 402.08 279.82 401.72C279.65 400.89 279.41 399.72 279.11 398.31C278.184 394.118 277.572 389.863 277.28 385.58C277.112 382.598 277.45 379.609 278.28 376.74C279.185 373.416 280.829 370.339 283.09 367.74C284.343 366.347 285.816 365.168 287.45 364.25C289.171 363.306 291.066 362.724 293.02 362.54C295.04 362.308 297.086 362.512 299.02 363.14C301.042 363.762 302.847 364.94 304.23 366.54C307.01 369.87 307.6 374.12 309.68 377.31C310.629 378.906 312.12 380.109 313.88 380.7C315.601 381.185 317.416 381.234 319.16 380.84C322.63 380.18 325.66 378.47 328.79 377.67C330.298 377.227 331.872 377.055 333.44 377.16C334.888 377.288 336.298 377.684 337.6 378.33C339.854 379.426 341.682 381.237 342.8 383.48C343.613 385.171 344.001 387.035 343.93 388.91C343.898 390.086 343.672 391.248 343.26 392.35C343.134 392.716 342.97 393.068 342.77 393.4Z" fill="#FFAB19"/>
<path d="M306.44 370.86C308.094 371.858 309.964 372.444 311.892 372.57C313.82 372.695 315.75 372.355 317.52 371.58C319.122 370.675 320.475 369.388 321.459 367.833C322.443 366.279 323.027 364.505 323.16 362.67C321.595 361.815 319.858 361.322 318.078 361.227C316.297 361.133 314.518 361.439 312.872 362.123C311.225 362.807 309.753 363.852 308.563 365.181C307.374 366.509 306.498 368.088 306 369.8" fill="#FFAB19"/>
<path d="M318.21 381.54C318.22 383.472 318.692 385.374 319.588 387.086C320.484 388.798 321.778 390.271 323.36 391.38C324.966 392.276 326.769 392.761 328.607 392.793C330.446 392.824 332.264 392.401 333.9 391.56C333.815 389.781 333.332 388.044 332.487 386.477C331.642 384.91 330.457 383.552 329.017 382.503C327.578 381.454 325.922 380.742 324.171 380.417C322.42 380.093 320.619 380.166 318.9 380.63" fill="#FFAB19"/>
<path d="M338.65 379.17C340.4 379.987 342.321 380.372 344.251 380.292C346.181 380.212 348.063 379.669 349.74 378.71C351.236 377.64 352.445 376.216 353.258 374.565C354.071 372.915 354.463 371.089 354.4 369.25C352.74 368.621 350.967 368.346 349.194 368.444C347.422 368.543 345.69 369.011 344.11 369.82C342.577 370.709 341.25 371.913 340.215 373.352C339.181 374.792 338.464 376.433 338.11 378.17" fill="#FFAB19"/>
<path d="M289.28 363.78C286.28 361.21 284.28 356.7 284.88 353.32C285.277 351.528 286.109 349.861 287.302 348.466C288.494 347.072 290.012 345.991 291.72 345.32C292.993 346.561 293.972 348.071 294.585 349.739C295.199 351.407 295.432 353.191 295.267 354.961C295.102 356.73 294.544 358.441 293.632 359.967C292.721 361.493 291.48 362.796 290 363.78" fill="#FFAB19"/>
<path d="M209.51 349.15C209.539 349.055 209.579 348.965 209.63 348.88C209.74 348.67 209.87 348.42 210.04 348.12C210.592 347.154 211.193 346.216 211.84 345.31C214.195 341.929 217.222 339.07 220.73 336.91C223.178 335.416 225.897 334.421 228.73 333.98C231.993 333.498 235.325 333.842 238.42 334.98C241.896 336.198 244.831 338.602 246.71 341.77C248.62 345.09 249.23 349 250.35 352.77C250.864 354.612 251.642 356.371 252.66 357.99C253.73 359.51 255.064 360.824 256.6 361.87C258.08 362.97 259.6 363.95 261.04 365.1C262.418 366.228 263.629 367.544 264.64 369.01C266.474 371.727 267.733 374.789 268.34 378.01C268.875 380.803 269.04 383.654 268.83 386.49C268.49 390.57 267.763 394.608 266.66 398.55C266.29 399.95 265.98 401.03 265.77 401.76C265.672 402.137 265.552 402.507 265.41 402.87C265.447 402.483 265.524 402.101 265.64 401.73C265.83 400.93 266.08 399.85 266.41 398.49C267.405 394.554 268.054 390.539 268.35 386.49C268.53 383.697 268.342 380.893 267.79 378.15C267.176 375.006 265.931 372.019 264.13 369.37C263.144 367.96 261.966 366.695 260.63 365.61C259.26 364.5 257.72 363.52 256.21 362.42C254.616 361.338 253.225 359.984 252.1 358.42C251.045 356.741 250.237 354.919 249.7 353.01C248.57 349.22 247.96 345.37 246.14 342.18C244.336 339.144 241.528 336.834 238.2 335.65C235.206 334.525 231.979 334.164 228.81 334.6C226.05 335.013 223.397 335.96 221 337.39C217.519 339.492 214.487 342.262 212.08 345.54C211.22 346.69 210.6 347.62 210.18 348.26C209.979 348.573 209.755 348.87 209.51 349.15Z" fill="#FFAB19"/>
<path d="M258.31 362.84C257.31 361.84 256.78 362.55 255.4 362.84C254.024 363.147 252.743 363.785 251.67 364.7C249.305 366.652 247.562 369.253 246.658 372.184C245.753 375.114 245.726 378.245 246.58 381.19C248.79 381.311 250.992 380.831 252.952 379.802C254.912 378.772 256.556 377.232 257.711 375.343C258.865 373.454 259.487 371.288 259.51 369.074C259.533 366.861 258.955 364.682 257.84 362.77" fill="#FFAB19"/>
<path d="M216.09 343.62C215.58 342.32 214.84 342.7 213.48 342.34C212.109 342.018 210.68 342.042 209.32 342.41C206.343 343.153 203.648 344.751 201.569 347.008C199.49 349.265 198.117 352.082 197.62 355.11C199.564 356.171 201.759 356.685 203.971 356.599C206.184 356.513 208.332 355.829 210.187 354.619C212.043 353.41 213.536 351.721 214.508 349.732C215.48 347.742 215.896 345.527 215.71 343.32" fill="#FFAB19"/>
<path d="M267.61 388.84C266.204 387.217 264.448 385.935 262.474 385.091C260.5 384.247 258.359 383.863 256.215 383.968C254.07 384.073 251.978 384.665 250.096 385.697C248.213 386.73 246.591 388.178 245.35 389.93C248.513 392.804 252.617 394.422 256.89 394.48C261.206 394.365 265.336 392.696 268.52 389.78" fill="#FFAB19"/>
<path d="M264.14 369.42C266.293 369.481 268.432 369.057 270.398 368.18C272.364 367.302 274.108 365.993 275.5 364.35C276.892 362.706 277.896 360.771 278.437 358.687C278.979 356.602 279.045 354.423 278.63 352.31C276.366 351.784 274.003 351.88 271.789 352.589C269.576 353.297 267.595 354.592 266.058 356.334C264.52 358.077 263.482 360.203 263.055 362.487C262.628 364.772 262.826 367.129 263.63 369.31" fill="#FFAB19"/>
<path d="M249.28 346.59C251.29 347.367 253.449 347.68 255.597 347.507C257.745 347.334 259.827 346.678 261.686 345.59C263.546 344.501 265.136 343.006 266.338 341.218C267.54 339.43 268.324 337.393 268.63 335.26C266.675 334.023 264.422 333.336 262.109 333.271C259.796 333.207 257.509 333.767 255.487 334.893C253.466 336.019 251.785 337.669 250.622 339.669C249.46 341.669 248.858 343.946 248.88 346.26" fill="#FFAB19"/>
<path d="M244.3 339.14C242.293 338.372 240.138 338.066 237.997 338.244C235.855 338.422 233.781 339.079 231.927 340.167C230.074 341.255 228.489 342.746 227.29 344.529C226.091 346.313 225.308 348.343 225 350.47C226.955 351.707 229.208 352.394 231.521 352.459C233.834 352.523 236.121 351.963 238.143 350.837C240.164 349.711 241.845 348.061 243.008 346.061C244.17 344.061 244.772 341.784 244.75 339.47" fill="#FFAB19"/>
<path d="M238.36 335.12C240.408 334.434 242.275 333.294 243.82 331.785C245.366 330.276 246.55 328.438 247.285 326.406C248.019 324.375 248.285 322.205 248.063 320.056C247.841 317.908 247.135 315.837 246 314C243.701 314.299 241.526 315.212 239.703 316.645C237.881 318.078 236.48 319.976 235.647 322.139C234.814 324.303 234.581 326.651 234.972 328.936C235.364 331.22 236.365 333.357 237.87 335.12" fill="#FFAB19"/>
<path d="M223.15 335.85C223.885 333.825 224.154 331.661 223.937 329.518C223.72 327.374 223.024 325.308 221.898 323.471C220.773 321.634 219.249 320.074 217.439 318.907C215.628 317.74 213.578 316.996 211.44 316.73C210.24 318.712 209.597 320.981 209.579 323.298C209.562 325.614 210.17 327.893 211.339 329.893C212.509 331.893 214.196 333.54 216.224 334.661C218.252 335.782 220.545 336.334 222.86 336.26" fill="#FFAB19"/>
<path d="M243.91 447.85L248.67 453.75H307.13L311.11 447.85H243.91Z" fill="#263238"/>
<path d="M309.83 447.8C309.83 447.98 295.46 448.13 277.74 448.13C260.02 448.13 245.66 447.98 245.66 447.8C245.66 447.62 260.02 447.46 277.74 447.46C295.46 447.46 309.83 447.61 309.83 447.8Z" fill="#455A64"/>
<path d="M303.26 425.6C303.156 425.774 303.032 425.935 302.89 426.08C302.521 426.522 302.123 426.939 301.7 427.33C300.147 428.786 298.388 430.006 296.48 430.95C293.631 432.353 290.523 433.153 287.35 433.3C285.478 433.382 283.603 433.224 281.77 432.83C279.82 432.375 277.915 431.743 276.08 430.94C272.31 429.34 268.88 427.51 265.55 426.45C262.642 425.385 259.509 425.083 256.45 425.57C254.395 425.927 252.47 426.82 250.87 428.16C250.313 428.686 249.782 429.24 249.28 429.82C249.351 429.63 249.449 429.452 249.57 429.29C249.901 428.822 250.279 428.389 250.7 428C252.282 426.534 254.243 425.54 256.36 425.13C259.496 424.56 262.727 424.822 265.73 425.89C269.15 426.94 272.62 428.77 276.34 430.35C278.136 431.138 280.001 431.761 281.91 432.21C283.689 432.604 285.51 432.772 287.33 432.71C290.425 432.599 293.466 431.865 296.27 430.55C298.844 429.275 301.203 427.605 303.26 425.6Z" fill="#455A64"/>
<path d="M303.84 421C303.731 421.173 303.596 421.328 303.44 421.46C303.034 421.869 302.607 422.257 302.16 422.62C300.512 423.973 298.693 425.103 296.75 425.98C293.849 427.276 290.733 428.022 287.56 428.18C285.685 428.263 283.806 428.136 281.96 427.8C279.993 427.409 278.061 426.864 276.18 426.17C272.32 424.76 268.78 423.17 265.39 422.17C262.429 421.233 259.301 420.95 256.22 421.34C254.147 421.627 252.167 422.383 250.43 423.55C249.22 424.4 248.69 425.05 248.64 425C248.59 424.95 248.74 424.82 249 424.52C249.389 424.088 249.818 423.693 250.28 423.34C252.006 422.057 254.016 421.21 256.14 420.87C259.293 420.399 262.511 420.638 265.56 421.57C269.01 422.5 272.56 424.11 276.41 425.49C278.253 426.181 280.15 426.723 282.08 427.11C283.876 427.445 285.704 427.583 287.53 427.52C290.625 427.395 293.673 426.717 296.53 425.52C299.16 424.352 301.619 422.831 303.84 421Z" fill="#455A64"/>
</svg>
